<svg xmlns="http://www.w3.org/2000/svg" xmlns:xlink="http://www.w3.org/1999/xlink" width="377pt" height="500" viewBox="0 0 377 375"><g id="graph0" class="graph" transform="scale(1 1) rotate(0) translate(4 371)"><title>public.endorsements</title><polygon fill="#fff" stroke="transparent" points="-4 4 -4 -371 373 -371 373 4 -4 4"/><g id="node1" class="node"><title>public.endorsements</title><polygon fill="#efefef" stroke="transparent" points="46.5 -285.5 46.5 -320.5 323.5 -320.5 323.5 -285.5 46.5 -285.5"/><polygon fill="none" stroke="#000" points="46.5 -285.5 46.5 -320.5 323.5 -320.5 323.5 -285.5 46.5 -285.5"/><text x="53.353" y="-298.3" fill="#000" font-family="Arial Bold" font-size="18" text-anchor="start">public.endorsements</text><text x="223.283" y="-298.3" fill="#666" font-family="Arial" font-size="14" text-anchor="start">[BASE TABLE]</text><polygon fill="none" stroke="#000" points="46.5 -255.5 46.5 -285.5 323.5 -285.5 323.5 -255.5 46.5 -255.5"/><text x="53.5" y="-266.9" fill="#000" font-family="Arial" font-size="14" text-anchor="start">id</text><text x="68.28" y="-266.9" fill="#666" font-family="Arial" font-size="14" text-anchor="start">[uuid]</text><polygon fill="none" stroke="#000" points="46.5 -225.5 46.5 -255.5 323.5 -255.5 323.5 -225.5 46.5 -225.5"/><text x="53.5" y="-236.9" fill="#000" font-family="Arial" font-size="14" text-anchor="start">creator_user_id</text><text x="154.63" y="-236.9" fill="#666" font-family="Arial" font-size="14" text-anchor="start">[bigint]</text><polygon fill="none" stroke="#000" points="46.5 -195.5 46.5 -225.5 323.5 -225.5 323.5 -195.5 46.5 -195.5"/><text x="53.5" y="-206.9" fill="#000" font-family="Arial" font-size="14" text-anchor="start">recipient_user_id</text><text x="163.966" y="-206.9" fill="#666" font-family="Arial" font-size="14" text-anchor="start">[bigint]</text><polygon fill="none" stroke="#000" points="46.5 -165.5 46.5 -195.5 323.5 -195.5 323.5 -165.5 46.5 -165.5"/><text x="53.5" y="-176.9" fill="#000" font-family="Arial" font-size="14" text-anchor="start">repo_id</text><text x="104.071" y="-176.9" fill="#666" font-family="Arial" font-size="14" text-anchor="start">[bigint]</text><polygon fill="none" stroke="#000" points="46.5 -135.5 46.5 -165.5 323.5 -165.5 323.5 -135.5 46.5 -135.5"/><text x="53.5" y="-146.9" fill="#000" font-family="Arial" font-size="14" text-anchor="start">created_at</text><text x="123.528" y="-146.9" fill="#666" font-family="Arial" font-size="14" text-anchor="start">[timestamp without time zone]</text><polygon fill="none" stroke="#000" points="46.5 -105.5 46.5 -135.5 323.5 -135.5 323.5 -105.5 46.5 -105.5"/><text x="53.5" y="-116.9" fill="#000" font-family="Arial" font-size="14" text-anchor="start">type</text><text x="83.846" y="-116.9" fill="#666" font-family="Arial" font-size="14" text-anchor="start">[varchar(20)]</text><polygon fill="none" stroke="#000" points="46.5 -75.5 46.5 -105.5 323.5 -105.5 323.5 -75.5 46.5 -75.5"/><text x="53.5" y="-86.9" fill="#000" font-family="Arial" font-size="14" text-anchor="start">source_comment_url</text><text x="188.074" y="-86.9" fill="#666" font-family="Arial" font-size="14" text-anchor="start">[varchar(500)]</text><polygon fill="none" stroke="#000" points="46.5 -45.5 46.5 -75.5 323.5 -75.5 323.5 -45.5 46.5 -45.5"/><text x="53.5" y="-56.9" fill="#000" font-family="Arial" font-size="14" text-anchor="start">source_context_url</text><text x="175.643" y="-56.9" fill="#666" font-family="Arial" font-size="14" text-anchor="start">[varchar(500)]</text><polygon fill="none" stroke="#000" stroke-width="3" points="44.5 -44.5 44.5 -322.5 324.5 -322.5 324.5 -44.5 44.5 -44.5"/></g></g></svg>