<svg xmlns="http://www.w3.org/2000/svg" xmlns:xlink="http://www.w3.org/1999/xlink" width="409pt" height="260" viewBox="0 0 409 195"><g id="graph0" class="graph" transform="scale(1 1) rotate(0) translate(4 191)"><title>public.pg_stat_statements_info</title><polygon fill="#fff" stroke="transparent" points="-4 4 -4 -191 405 -191 405 4 -4 4"/><g id="node1" class="node"><title>public.pg_stat_statements_info</title><polygon fill="#efefef" stroke="transparent" points="46.5 -105.5 46.5 -140.5 355.5 -140.5 355.5 -105.5 46.5 -105.5"/><polygon fill="none" stroke="#000" points="46.5 -105.5 46.5 -140.5 355.5 -140.5 355.5 -105.5 46.5 -105.5"/><text x="53.233" y="-118.3" fill="#000" font-family="Arial Bold" font-size="18" text-anchor="start">public.pg_stat_statements_info</text><text x="305.207" y="-118.3" fill="#666" font-family="Arial" font-size="14" text-anchor="start">[VIEW]</text><polygon fill="none" stroke="#000" points="46.5 -75.5 46.5 -105.5 355.5 -105.5 355.5 -75.5 46.5 -75.5"/><text x="53.5" y="-86.9" fill="#000" font-family="Arial" font-size="14" text-anchor="start">dealloc</text><text x="101.734" y="-86.9" fill="#666" font-family="Arial" font-size="14" text-anchor="start">[bigint]</text><polygon fill="none" stroke="#000" points="46.5 -45.5 46.5 -75.5 355.5 -75.5 355.5 -45.5 46.5 -45.5"/><text x="53.5" y="-56.9" fill="#000" font-family="Arial" font-size="14" text-anchor="start">stats_reset</text><text x="125.853" y="-56.9" fill="#666" font-family="Arial" font-size="14" text-anchor="start">[timestamp with time zone]</text><polygon fill="none" stroke="#000" stroke-width="3" points="44.5 -44.5 44.5 -142.5 356.5 -142.5 356.5 -44.5 44.5 -44.5"/></g></g></svg>