<svg xmlns="http://www.w3.org/2000/svg" xmlns:xlink="http://www.w3.org/1999/xlink" width="356pt" height="220" viewBox="0 0 356 165"><g id="graph0" class="graph" transform="scale(1 1) rotate(0) translate(4 161)"><title>public.maintainers</title><polygon fill="#fff" stroke="transparent" points="-4 4 -4 -161 352 -161 352 4 -4 4"/><g id="node1" class="node"><title>public.maintainers</title><polygon fill="#efefef" stroke="transparent" points="46 -75.5 46 -110.5 302 -110.5 302 -75.5 46 -75.5"/><polygon fill="none" stroke="#000" points="46 -75.5 46 -110.5 302 -110.5 302 -75.5 46 -75.5"/><text x="52.865" y="-88.3" fill="#000" font-family="Arial Bold" font-size="18" text-anchor="start">public.maintainers</text><text x="201.771" y="-88.3" fill="#666" font-family="Arial" font-size="14" text-anchor="start">[BASE TABLE]</text><polygon fill="none" stroke="#000" points="46 -45.5 46 -75.5 302 -75.5 302 -45.5 46 -45.5"/><text x="53" y="-56.9" fill="#000" font-family="Arial" font-size="14" text-anchor="start">login</text><text x="86.452" y="-56.9" fill="#666" font-family="Arial" font-size="14" text-anchor="start">[text]</text><polygon fill="none" stroke="#000" stroke-width="3" points="44.5 -44.5 44.5 -112.5 303.5 -112.5 303.5 -44.5 44.5 -44.5"/></g></g></svg>