<svg xmlns="http://www.w3.org/2000/svg" xmlns:xlink="http://www.w3.org/1999/xlink" width="1800" height="526pt" viewBox="0 0 1350 526"><g id="graph0" class="graph" transform="scale(1 1) rotate(0) translate(4 522)"><title>public.commit_authors</title><polygon fill="#fff" stroke="transparent" points="-4 4 -4 -522 1346 -522 1346 4 -4 4"/><g id="node1" class="node"><title>public.commit_authors</title><polygon fill="#efefef" stroke="transparent" points="346 -117.5 346 -152.5 637 -152.5 637 -117.5 346 -117.5"/><polygon fill="none" stroke="#000" points="346 -117.5 346 -152.5 637 -152.5 637 -117.5 346 -117.5"/><text x="352.862" y="-130.3" fill="#000" font-family="Arial Bold" font-size="18" text-anchor="start">public.commit_authors</text><text x="536.774" y="-130.3" fill="#666" font-family="Arial" font-size="14" text-anchor="start">[BASE TABLE]</text><polygon fill="none" stroke="#000" points="346 -87.5 346 -117.5 637 -117.5 637 -87.5 346 -87.5"/><text x="353" y="-98.9" fill="#000" font-family="Arial" font-size="14" text-anchor="start">id</text><text x="367.78" y="-98.9" fill="#666" font-family="Arial" font-size="14" text-anchor="start">[bigint]</text><polygon fill="none" stroke="#000" points="346 -57.5 346 -87.5 637 -87.5 637 -57.5 346 -57.5"/><text x="353" y="-68.9" fill="#000" font-family="Arial" font-size="14" text-anchor="start">commit_author_email</text><text x="490.677" y="-68.9" fill="#666" font-family="Arial" font-size="14" text-anchor="start">[varchar(255)]</text><polygon fill="none" stroke="#000" stroke-width="3" points="344 -56.5 344 -154.5 638 -154.5 638 -56.5 344 -56.5"/></g><g id="node2" class="node"><title>public.commits</title><polygon fill="#efefef" stroke="transparent" points="553 -439.5 553 -474.5 816 -474.5 816 -439.5 553 -439.5"/><polygon fill="none" stroke="#000" points="553 -439.5 553 -474.5 816 -474.5 816 -439.5 553 -439.5"/><text x="576.375" y="-452.3" fill="#000" font-family="Arial Bold" font-size="18" text-anchor="start">public.commits</text><text x="699.262" y="-452.3" fill="#666" font-family="Arial" font-size="14" text-anchor="start">[BASE TABLE]</text><polygon fill="none" stroke="#000" points="553 -409.5 553 -439.5 816 -439.5 816 -409.5 553 -409.5"/><text x="560" y="-420.9" fill="#000" font-family="Arial" font-size="14" text-anchor="start">id</text><text x="574.78" y="-420.9" fill="#666" font-family="Arial" font-size="14" text-anchor="start">[bigint]</text><polygon fill="none" stroke="#000" points="553 -379.5 553 -409.5 816 -409.5 816 -379.5 553 -379.5"/><text x="560" y="-390.9" fill="#000" font-family="Arial" font-size="14" text-anchor="start">baked_repo_id</text><text x="656.484" y="-390.9" fill="#666" font-family="Arial" font-size="14" text-anchor="start">[bigint]</text><polygon fill="none" stroke="#000" points="553 -349.5 553 -379.5 816 -379.5 816 -349.5 553 -349.5"/><text x="560" y="-360.9" fill="#000" font-family="Arial" font-size="14" text-anchor="start">commit_author_id</text><text x="675.128" y="-360.9" fill="#666" font-family="Arial" font-size="14" text-anchor="start">[bigint]</text><polygon fill="none" stroke="#000" points="553 -319.5 553 -349.5 816 -349.5 816 -319.5 553 -319.5"/><text x="560" y="-330.9" fill="#000" font-family="Arial" font-size="14" text-anchor="start">commit_hash</text><text x="647.122" y="-330.9" fill="#666" font-family="Arial" font-size="14" text-anchor="start">[varchar(255)]</text><polygon fill="none" stroke="#000" points="553 -289.5 553 -319.5 816 -319.5 816 -289.5 553 -289.5"/><text x="559.652" y="-300.9" fill="#000" font-family="Arial" font-size="14" text-anchor="start">commit_date</text><text x="643.664" y="-300.9" fill="#666" font-family="Arial" font-size="14" text-anchor="start">[timestamp with time zone]</text></g><g id="edge1" class="edge"><title>public.commits:commit_author_id-&gt;public.commit_authors:id</title><path fill="none" stroke="#000" d="M542.6333,-363.3454C504.6398,-353.9128 528.7337,-288.8152 553,-247 574.5822,-209.81 615.4178,-236.19 637,-199 658.5271,-161.905 679.8889,-102.5 637,-102.5"/><polygon fill="#000" stroke="#000" points="543.062 -363.393 552.502 -368.972 548.031 -363.947 553 -364.5 553 -364.5 553 -364.5 548.031 -363.947 553.498 -360.028 543.062 -363.393 543.062 -363.393"/><text x="7.271" y="-374.5" fill="#000" font-family="Arial" font-size="10" text-anchor="start">FOREIGN KEY (commit_author_id) REFERENCES commit_authors(id) ON UPDATE CASCADE ON DELETE CASCADE</text></g><g id="node3" class="node"><title>public.baked_repos</title><polygon fill="#efefef" stroke="transparent" points="744 -132.5 744 -167.5 1011 -167.5 1011 -132.5 744 -132.5"/><polygon fill="none" stroke="#000" points="744 -132.5 744 -167.5 1011 -167.5 1011 -132.5 744 -132.5"/><text x="750.848" y="-145.3" fill="#000" font-family="Arial Bold" font-size="18" text-anchor="start">public.baked_repos</text><text x="910.789" y="-145.3" fill="#666" font-family="Arial" font-size="14" text-anchor="start">[BASE TABLE]</text><polygon fill="none" stroke="#000" points="744 -102.5 744 -132.5 1011 -132.5 1011 -102.5 744 -102.5"/><text x="751" y="-113.9" fill="#000" font-family="Arial" font-size="14" text-anchor="start">id</text><text x="765.78" y="-113.9" fill="#666" font-family="Arial" font-size="14" text-anchor="start">[bigint]</text><polygon fill="none" stroke="#000" points="744 -72.5 744 -102.5 1011 -102.5 1011 -72.5 744 -72.5"/><text x="751" y="-83.9" fill="#000" font-family="Arial" font-size="14" text-anchor="start">clone_url</text><text x="811.677" y="-83.9" fill="#666" font-family="Arial" font-size="14" text-anchor="start">[varchar(255)]</text><polygon fill="none" stroke="#000" points="744 -42.5 744 -72.5 1011 -72.5 1011 -42.5 744 -42.5"/><text x="751" y="-53.9" fill="#000" font-family="Arial" font-size="14" text-anchor="start">repo_id</text><text x="801.571" y="-53.9" fill="#666" font-family="Arial" font-size="14" text-anchor="start">[bigint]</text></g><g id="edge2" class="edge"><title>public.commits:baked_repo_id-&gt;public.baked_repos:id</title><path fill="none" stroke="#000" d="M826.2261,-393.6403C878.0227,-384.2235 848.5125,-299.6063 816,-247 797.1909,-216.5662 762.8091,-241.4338 744,-211 722.153,-175.6507 702.4444,-117.5 744,-117.5"/><polygon fill="#000" stroke="#000" points="825.965 -393.662 815.623 -390.016 820.982 -394.081 816 -394.5 816 -394.5 816 -394.5 820.982 -394.081 816.377 -398.984 825.965 -393.662 825.965 -393.662"/><text x="822.588" y="-404.5" fill="#000" font-family="Arial" font-size="10" text-anchor="start">FOREIGN KEY (baked_repo_id) REFERENCES baked_repos(id) ON UPDATE CASCADE ON DELETE CASCADE</text></g></g></svg>