<svg xmlns="http://www.w3.org/2000/svg" xmlns:xlink="http://www.w3.org/1999/xlink" width="370pt" height="420" viewBox="0 0 370 315"><g id="graph0" class="graph" transform="scale(1 1) rotate(0) translate(4 311)"><title>public.insight_repos</title><polygon fill="#fff" stroke="transparent" points="-4 4 -4 -311 366 -311 366 4 -4 4"/><g id="node1" class="node"><title>public.insight_repos</title><polygon fill="#efefef" stroke="transparent" points="46 -225.5 46 -260.5 316 -260.5 316 -225.5 46 -225.5"/><polygon fill="none" stroke="#000" points="46 -225.5 46 -260.5 316 -260.5 316 -225.5 46 -225.5"/><text x="52.855" y="-238.3" fill="#000" font-family="Arial Bold" font-size="18" text-anchor="start">public.insight_repos</text><text x="215.781" y="-238.3" fill="#666" font-family="Arial" font-size="14" text-anchor="start">[BASE TABLE]</text><polygon fill="none" stroke="#000" points="46 -195.5 46 -225.5 316 -225.5 316 -195.5 46 -195.5"/><text x="53" y="-206.9" fill="#000" font-family="Arial" font-size="14" text-anchor="start">id</text><text x="67.78" y="-206.9" fill="#666" font-family="Arial" font-size="14" text-anchor="start">[bigint]</text><polygon fill="none" stroke="#000" points="46 -165.5 46 -195.5 316 -195.5 316 -165.5 46 -165.5"/><text x="53" y="-176.9" fill="#000" font-family="Arial" font-size="14" text-anchor="start">insight_id</text><text x="116.014" y="-176.9" fill="#666" font-family="Arial" font-size="14" text-anchor="start">[bigint]</text><polygon fill="none" stroke="#000" points="46 -135.5 46 -165.5 316 -165.5 316 -135.5 46 -135.5"/><text x="53" y="-146.9" fill="#000" font-family="Arial" font-size="14" text-anchor="start">repo_id</text><text x="103.571" y="-146.9" fill="#666" font-family="Arial" font-size="14" text-anchor="start">[bigint]</text><polygon fill="none" stroke="#000" points="46 -105.5 46 -135.5 316 -135.5 316 -105.5 46 -105.5"/><text x="53" y="-116.9" fill="#000" font-family="Arial" font-size="14" text-anchor="start">full_name</text><text x="117.568" y="-116.9" fill="#666" font-family="Arial" font-size="14" text-anchor="start">[varchar(255)]</text><polygon fill="none" stroke="#000" points="46 -75.5 46 -105.5 316 -105.5 316 -75.5 46 -75.5"/><text x="53" y="-86.9" fill="#000" font-family="Arial" font-size="14" text-anchor="start">created_at</text><text x="123.028" y="-86.9" fill="#666" font-family="Arial" font-size="14" text-anchor="start">[timestamp with time zone]</text><polygon fill="none" stroke="#000" points="46 -45.5 46 -75.5 316 -75.5 316 -45.5 46 -45.5"/><text x="53" y="-56.9" fill="#000" font-family="Arial" font-size="14" text-anchor="start">deleted_at</text><text x="122.257" y="-56.9" fill="#666" font-family="Arial" font-size="14" text-anchor="start">[timestamp without time zone]</text><polygon fill="none" stroke="#000" stroke-width="3" points="44.5 -44.5 44.5 -262.5 317.5 -262.5 317.5 -44.5 44.5 -44.5"/></g></g></svg>