<svg xmlns="http://www.w3.org/2000/svg" xmlns:xlink="http://www.w3.org/1999/xlink" width="1800" height="532pt" viewBox="0 0 1350 532"><g id="graph0" class="graph" transform="scale(1 1) rotate(0) translate(4 528)"><title>public.baked_repos</title><polygon fill="#fff" stroke="transparent" points="-4 4 -4 -528 1346 -528 1346 4 -4 4"/><g id="node1" class="node"><title>public.baked_repos</title><polygon fill="#efefef" stroke="transparent" points="331 -135.5 331 -170.5 598 -170.5 598 -135.5 331 -135.5"/><polygon fill="none" stroke="#000" points="331 -135.5 331 -170.5 598 -170.5 598 -135.5 331 -135.5"/><text x="337.848" y="-148.3" fill="#000" font-family="Arial Bold" font-size="18" text-anchor="start">public.baked_repos</text><text x="497.789" y="-148.3" fill="#666" font-family="Arial" font-size="14" text-anchor="start">[BASE TABLE]</text><polygon fill="none" stroke="#000" points="331 -105.5 331 -135.5 598 -135.5 598 -105.5 331 -105.5"/><text x="338" y="-116.9" fill="#000" font-family="Arial" font-size="14" text-anchor="start">id</text><text x="352.78" y="-116.9" fill="#666" font-family="Arial" font-size="14" text-anchor="start">[bigint]</text><polygon fill="none" stroke="#000" points="331 -75.5 331 -105.5 598 -105.5 598 -75.5 331 -75.5"/><text x="338" y="-86.9" fill="#000" font-family="Arial" font-size="14" text-anchor="start">clone_url</text><text x="398.677" y="-86.9" fill="#666" font-family="Arial" font-size="14" text-anchor="start">[varchar(255)]</text><polygon fill="none" stroke="#000" points="331 -45.5 331 -75.5 598 -75.5 598 -45.5 331 -45.5"/><text x="338" y="-56.9" fill="#000" font-family="Arial" font-size="14" text-anchor="start">repo_id</text><text x="388.571" y="-56.9" fill="#666" font-family="Arial" font-size="14" text-anchor="start">[bigint]</text><polygon fill="none" stroke="#000" stroke-width="3" points="329 -44.5 329 -172.5 599 -172.5 599 -44.5 329 -44.5"/></g><g id="node2" class="node"><title>public.commits</title><polygon fill="#efefef" stroke="transparent" points="526 -445.5 526 -480.5 789 -480.5 789 -445.5 526 -445.5"/><polygon fill="none" stroke="#000" points="526 -445.5 526 -480.5 789 -480.5 789 -445.5 526 -445.5"/><text x="549.375" y="-458.3" fill="#000" font-family="Arial Bold" font-size="18" text-anchor="start">public.commits</text><text x="672.262" y="-458.3" fill="#666" font-family="Arial" font-size="14" text-anchor="start">[BASE TABLE]</text><polygon fill="none" stroke="#000" points="526 -415.5 526 -445.5 789 -445.5 789 -415.5 526 -415.5"/><text x="533" y="-426.9" fill="#000" font-family="Arial" font-size="14" text-anchor="start">id</text><text x="547.78" y="-426.9" fill="#666" font-family="Arial" font-size="14" text-anchor="start">[bigint]</text><polygon fill="none" stroke="#000" points="526 -385.5 526 -415.5 789 -415.5 789 -385.5 526 -385.5"/><text x="533" y="-396.9" fill="#000" font-family="Arial" font-size="14" text-anchor="start">baked_repo_id</text><text x="629.484" y="-396.9" fill="#666" font-family="Arial" font-size="14" text-anchor="start">[bigint]</text><polygon fill="none" stroke="#000" points="526 -355.5 526 -385.5 789 -385.5 789 -355.5 526 -355.5"/><text x="533" y="-366.9" fill="#000" font-family="Arial" font-size="14" text-anchor="start">commit_author_id</text><text x="648.128" y="-366.9" fill="#666" font-family="Arial" font-size="14" text-anchor="start">[bigint]</text><polygon fill="none" stroke="#000" points="526 -325.5 526 -355.5 789 -355.5 789 -325.5 526 -325.5"/><text x="533" y="-336.9" fill="#000" font-family="Arial" font-size="14" text-anchor="start">commit_hash</text><text x="620.122" y="-336.9" fill="#666" font-family="Arial" font-size="14" text-anchor="start">[varchar(255)]</text><polygon fill="none" stroke="#000" points="526 -295.5 526 -325.5 789 -325.5 789 -295.5 526 -295.5"/><text x="532.652" y="-306.9" fill="#000" font-family="Arial" font-size="14" text-anchor="start">commit_date</text><text x="616.664" y="-306.9" fill="#666" font-family="Arial" font-size="14" text-anchor="start">[timestamp with time zone]</text></g><g id="edge1" class="edge"><title>public.commits:baked_repo_id-&gt;public.baked_repos:id</title><path fill="none" stroke="#000" d="M515.7739,-399.6403C463.9773,-390.2235 493.4875,-305.6063 526,-253 544.8091,-222.5662 579.1909,-247.4338 598,-217 620.548,-180.5165 640.8889,-120.5 598,-120.5"/><polygon fill="#000" stroke="#000" points="516.035 -399.662 525.623 -404.984 521.018 -400.081 526 -400.5 526 -400.5 526 -400.5 521.018 -400.081 526.377 -396.016 516.035 -399.662 516.035 -399.662"/><text x="6.588" y="-410.5" fill="#000" font-family="Arial" font-size="10" text-anchor="start">FOREIGN KEY (baked_repo_id) REFERENCES baked_repos(id) ON UPDATE CASCADE ON DELETE CASCADE</text></g><g id="node3" class="node"><title>public.commit_authors</title><polygon fill="#efefef" stroke="transparent" points="705 -120.5 705 -155.5 996 -155.5 996 -120.5 705 -120.5"/><polygon fill="none" stroke="#000" points="705 -120.5 705 -155.5 996 -155.5 996 -120.5 705 -120.5"/><text x="711.862" y="-133.3" fill="#000" font-family="Arial Bold" font-size="18" text-anchor="start">public.commit_authors</text><text x="895.774" y="-133.3" fill="#666" font-family="Arial" font-size="14" text-anchor="start">[BASE TABLE]</text><polygon fill="none" stroke="#000" points="705 -90.5 705 -120.5 996 -120.5 996 -90.5 705 -90.5"/><text x="712" y="-101.9" fill="#000" font-family="Arial" font-size="14" text-anchor="start">id</text><text x="726.78" y="-101.9" fill="#666" font-family="Arial" font-size="14" text-anchor="start">[bigint]</text><polygon fill="none" stroke="#000" points="705 -60.5 705 -90.5 996 -90.5 996 -60.5 705 -60.5"/><text x="712" y="-71.9" fill="#000" font-family="Arial" font-size="14" text-anchor="start">commit_author_email</text><text x="849.677" y="-71.9" fill="#666" font-family="Arial" font-size="14" text-anchor="start">[varchar(255)]</text></g><g id="edge2" class="edge"><title>public.commits:commit_author_id-&gt;public.commit_authors:id</title><path fill="none" stroke="#000" d="M799.3485,-369.3556C837.197,-360.0047 812.167,-295.4342 789,-253 767.7326,-214.0452 726.2674,-237.9548 705,-199 685.0871,-162.5262 663.4444,-105.5 705,-105.5"/><polygon fill="#000" stroke="#000" points="798.939 -369.401 788.505 -366.027 793.97 -369.95 789 -370.5 789 -370.5 789 -370.5 793.97 -369.95 789.495 -374.973 798.939 -369.401 798.939 -369.401"/><text x="796.271" y="-380.5" fill="#000" font-family="Arial" font-size="10" text-anchor="start">FOREIGN KEY (commit_author_id) REFERENCES commit_authors(id) ON UPDATE CASCADE ON DELETE CASCADE</text></g></g></svg>