<svg xmlns="http://www.w3.org/2000/svg" xmlns:xlink="http://www.w3.org/1999/xlink" width="1354pt" height="1756pt" viewBox="0 0 1354 1756"><g id="graph0" class="graph" transform="scale(1 1) rotate(0) translate(4 1752)"><title>public.user_highlights</title><polygon fill="#fff" stroke="transparent" points="-4 4 -4 -1752 1350 -1752 1350 4 -4 4"/><g id="node1" class="node"><title>public.user_highlights</title><polygon fill="#efefef" stroke="transparent" points="131 -852.5 131 -887.5 415 -887.5 415 -852.5 131 -852.5"/><polygon fill="none" stroke="#000" points="131 -852.5 131 -887.5 415 -887.5 415 -852.5 131 -852.5"/><text x="137.855" y="-865.3" fill="#000" font-family="Arial Bold" font-size="18" text-anchor="start">public.user_highlights</text><text x="314.782" y="-865.3" fill="#666" font-family="Arial" font-size="14" text-anchor="start">[BASE TABLE]</text><polygon fill="none" stroke="#000" points="131 -822.5 131 -852.5 415 -852.5 415 -822.5 131 -822.5"/><text x="138" y="-833.9" fill="#000" font-family="Arial" font-size="14" text-anchor="start">id</text><text x="152.78" y="-833.9" fill="#666" font-family="Arial" font-size="14" text-anchor="start">[bigint]</text><polygon fill="none" stroke="#000" points="131 -792.5 131 -822.5 415 -822.5 415 -792.5 131 -792.5"/><text x="138" y="-803.9" fill="#000" font-family="Arial" font-size="14" text-anchor="start">user_id</text><text x="187.788" y="-803.9" fill="#666" font-family="Arial" font-size="14" text-anchor="start">[bigint]</text><polygon fill="none" stroke="#000" points="131 -762.5 131 -792.5 415 -792.5 415 -762.5 131 -762.5"/><text x="138" y="-773.9" fill="#000" font-family="Arial" font-size="14" text-anchor="start">url</text><text x="157.44" y="-773.9" fill="#666" font-family="Arial" font-size="14" text-anchor="start">[varchar(255)]</text><polygon fill="none" stroke="#000" points="131 -732.5 131 -762.5 415 -762.5 415 -732.5 131 -732.5"/><text x="138" y="-743.9" fill="#000" font-family="Arial" font-size="14" text-anchor="start">highlight</text><text x="194.014" y="-743.9" fill="#666" font-family="Arial" font-size="14" text-anchor="start">[varchar(500)]</text><polygon fill="none" stroke="#000" points="131 -702.5 131 -732.5 415 -732.5 415 -702.5 131 -702.5"/><text x="138" y="-713.9" fill="#000" font-family="Arial" font-size="14" text-anchor="start">pinned</text><text x="183.91" y="-713.9" fill="#666" font-family="Arial" font-size="14" text-anchor="start">[boolean]</text><polygon fill="none" stroke="#000" points="131 -672.5 131 -702.5 415 -702.5 415 -672.5 131 -672.5"/><text x="138" y="-683.9" fill="#000" font-family="Arial" font-size="14" text-anchor="start">created_at</text><text x="208.028" y="-683.9" fill="#666" font-family="Arial" font-size="14" text-anchor="start">[timestamp with time zone]</text><polygon fill="none" stroke="#000" points="131 -642.5 131 -672.5 415 -672.5 415 -642.5 131 -642.5"/><text x="138" y="-653.9" fill="#000" font-family="Arial" font-size="14" text-anchor="start">updated_at</text><text x="211.933" y="-653.9" fill="#666" font-family="Arial" font-size="14" text-anchor="start">[timestamp with time zone]</text><polygon fill="none" stroke="#000" points="131 -612.5 131 -642.5 415 -642.5 415 -612.5 131 -612.5"/><text x="138" y="-623.9" fill="#000" font-family="Arial" font-size="14" text-anchor="start">deleted_at</text><text x="207.257" y="-623.9" fill="#666" font-family="Arial" font-size="14" text-anchor="start">[timestamp with time zone]</text><polygon fill="none" stroke="#000" points="131 -582.5 131 -612.5 415 -612.5 415 -582.5 131 -582.5"/><text x="138" y="-593.9" fill="#000" font-family="Arial" font-size="14" text-anchor="start">title</text><text x="163.668" y="-593.9" fill="#666" font-family="Arial" font-size="14" text-anchor="start">[varchar(100)]</text><polygon fill="none" stroke="#000" points="131 -552.5 131 -582.5 415 -582.5 415 -552.5 131 -552.5"/><text x="138" y="-563.9" fill="#000" font-family="Arial" font-size="14" text-anchor="start">shipped_at</text><text x="210.366" y="-563.9" fill="#666" font-family="Arial" font-size="14" text-anchor="start">[timestamp without time zone]</text><polygon fill="none" stroke="#000" points="131 -522.5 131 -552.5 415 -552.5 415 -522.5 131 -522.5"/><text x="138" y="-533.9" fill="#000" font-family="Arial" font-size="14" text-anchor="start">featured</text><text x="193.245" y="-533.9" fill="#666" font-family="Arial" font-size="14" text-anchor="start">[boolean]</text><polygon fill="none" stroke="#000" points="131 -492.5 131 -522.5 415 -522.5 415 -492.5 131 -492.5"/><text x="138" y="-503.9" fill="#000" font-family="Arial" font-size="14" text-anchor="start">type</text><text x="168.346" y="-503.9" fill="#666" font-family="Arial" font-size="14" text-anchor="start">[varchar(25)]</text><polygon fill="none" stroke="#000" stroke-width="3" points="129.5 -491.5 129.5 -889.5 416.5 -889.5 416.5 -491.5 129.5 -491.5"/></g><g id="node2" class="node"><title>public.user_highlight_reactions</title><polygon fill="#efefef" stroke="transparent" points="520 -1669.5 520 -1704.5 878 -1704.5 878 -1669.5 520 -1669.5"/><polygon fill="none" stroke="#000" points="520 -1669.5 520 -1704.5 878 -1704.5 878 -1669.5 520 -1669.5"/><text x="526.845" y="-1682.3" fill="#000" font-family="Arial Bold" font-size="18" text-anchor="start">public.user_highlight_reactions</text><text x="777.791" y="-1682.3" fill="#666" font-family="Arial" font-size="14" text-anchor="start">[BASE TABLE]</text><polygon fill="none" stroke="#000" points="520 -1639.5 520 -1669.5 878 -1669.5 878 -1639.5 520 -1639.5"/><text x="527" y="-1650.9" fill="#000" font-family="Arial" font-size="14" text-anchor="start">id</text><text x="541.78" y="-1650.9" fill="#666" font-family="Arial" font-size="14" text-anchor="start">[uuid]</text><polygon fill="none" stroke="#000" points="520 -1609.5 520 -1639.5 878 -1639.5 878 -1609.5 520 -1609.5"/><text x="527" y="-1620.9" fill="#000" font-family="Arial" font-size="14" text-anchor="start">user_id</text><text x="576.788" y="-1620.9" fill="#666" font-family="Arial" font-size="14" text-anchor="start">[bigint]</text><polygon fill="none" stroke="#000" points="520 -1579.5 520 -1609.5 878 -1609.5 878 -1579.5 520 -1579.5"/><text x="527" y="-1590.9" fill="#000" font-family="Arial" font-size="14" text-anchor="start">highlight_id</text><text x="601.686" y="-1590.9" fill="#666" font-family="Arial" font-size="14" text-anchor="start">[bigint]</text><polygon fill="none" stroke="#000" points="520 -1549.5 520 -1579.5 878 -1579.5 878 -1549.5 520 -1549.5"/><text x="527" y="-1560.9" fill="#000" font-family="Arial" font-size="14" text-anchor="start">emoji_id</text><text x="583.001" y="-1560.9" fill="#666" font-family="Arial" font-size="14" text-anchor="start">[uuid]</text><polygon fill="none" stroke="#000" points="520 -1519.5 520 -1549.5 878 -1549.5 878 -1519.5 520 -1519.5"/><text x="527" y="-1530.9" fill="#000" font-family="Arial" font-size="14" text-anchor="start">created_at</text><text x="597.028" y="-1530.9" fill="#666" font-family="Arial" font-size="14" text-anchor="start">[timestamp without time zone]</text><polygon fill="none" stroke="#000" points="520 -1489.5 520 -1519.5 878 -1519.5 878 -1489.5 520 -1489.5"/><text x="527" y="-1500.9" fill="#000" font-family="Arial" font-size="14" text-anchor="start">updated_at</text><text x="600.933" y="-1500.9" fill="#666" font-family="Arial" font-size="14" text-anchor="start">[timestamp without time zone]</text><polygon fill="none" stroke="#000" points="520 -1459.5 520 -1489.5 878 -1489.5 878 -1459.5 520 -1459.5"/><text x="527" y="-1470.9" fill="#000" font-family="Arial" font-size="14" text-anchor="start">deleted_at</text><text x="596.257" y="-1470.9" fill="#666" font-family="Arial" font-size="14" text-anchor="start">[timestamp without time zone]</text></g><g id="edge1" class="edge"><title>public.user_highlight_reactions:highlight_id-&gt;public.user_highlights:id</title><path fill="none" stroke="#000" d="M509.8031,-1594.0222C427.1476,-1585.8179 485.455,-1473.5583 470,-1381 460.0034,-1321.1315 475.6973,-837.5 415,-837.5"/><polygon fill="#000" stroke="#000" points="510.011 -1594.032 519.789 -1598.995 515.005 -1594.266 520 -1594.5 520 -1594.5 520 -1594.5 515.005 -1594.266 520.211 -1590.005 510.011 -1594.032 510.011 -1594.032"/><text x="6.655" y="-1604.5" fill="#000" font-family="Arial" font-size="10" text-anchor="start">FOREIGN KEY (highlight_id) REFERENCES user_highlights(id) ON UPDATE CASCADE ON DELETE CASCADE</text></g><g id="node3" class="node"><title>public.users</title><polygon fill="#efefef" stroke="transparent" points="523 -1302.5 523 -1337.5 874 -1337.5 874 -1302.5 523 -1302.5"/><polygon fill="none" stroke="#000" points="523 -1302.5 523 -1337.5 874 -1337.5 874 -1302.5 523 -1302.5"/><text x="601.866" y="-1315.3" fill="#000" font-family="Arial Bold" font-size="18" text-anchor="start">public.users</text><text x="701.771" y="-1315.3" fill="#666" font-family="Arial" font-size="14" text-anchor="start">[BASE TABLE]</text><polygon fill="none" stroke="#000" points="523 -1272.5 523 -1302.5 874 -1302.5 874 -1272.5 523 -1272.5"/><text x="530" y="-1283.9" fill="#000" font-family="Arial" font-size="14" text-anchor="start">id</text><text x="544.78" y="-1283.9" fill="#666" font-family="Arial" font-size="14" text-anchor="start">[bigint]</text><polygon fill="none" stroke="#000" points="523 -1242.5 523 -1272.5 874 -1272.5 874 -1242.5 523 -1242.5"/><text x="530" y="-1253.9" fill="#000" font-family="Arial" font-size="14" text-anchor="start">open_issues</text><text x="612.475" y="-1253.9" fill="#666" font-family="Arial" font-size="14" text-anchor="start">[bigint]</text><polygon fill="none" stroke="#000" points="523 -1212.5 523 -1242.5 874 -1242.5 874 -1212.5 523 -1212.5"/><text x="530" y="-1223.9" fill="#000" font-family="Arial" font-size="14" text-anchor="start">public_repos</text><text x="613.243" y="-1223.9" fill="#666" font-family="Arial" font-size="14" text-anchor="start">[bigint]</text><polygon fill="none" stroke="#000" points="523 -1182.5 523 -1212.5 874 -1212.5 874 -1182.5 523 -1182.5"/><text x="530" y="-1193.9" fill="#000" font-family="Arial" font-size="14" text-anchor="start">public_gists</text><text x="607.014" y="-1193.9" fill="#666" font-family="Arial" font-size="14" text-anchor="start">[bigint]</text><polygon fill="none" stroke="#000" points="523 -1152.5 523 -1182.5 874 -1182.5 874 -1152.5 523 -1152.5"/><text x="530" y="-1163.9" fill="#000" font-family="Arial" font-size="14" text-anchor="start">followers</text><text x="589.109" y="-1163.9" fill="#666" font-family="Arial" font-size="14" text-anchor="start">[bigint]</text><polygon fill="none" stroke="#000" points="523 -1122.5 523 -1152.5 874 -1152.5 874 -1122.5 523 -1122.5"/><text x="530" y="-1133.9" fill="#000" font-family="Arial" font-size="14" text-anchor="start">following</text><text x="588.338" y="-1133.9" fill="#666" font-family="Arial" font-size="14" text-anchor="start">[bigint]</text><polygon fill="none" stroke="#000" points="523 -1092.5 523 -1122.5 874 -1122.5 874 -1092.5 523 -1092.5"/><text x="530" y="-1103.9" fill="#000" font-family="Arial" font-size="14" text-anchor="start">role</text><text x="557.223" y="-1103.9" fill="#666" font-family="Arial" font-size="14" text-anchor="start">[bigint]</text><polygon fill="none" stroke="#000" points="523 -1062.5 523 -1092.5 874 -1092.5 874 -1062.5 523 -1062.5"/><text x="530" y="-1073.9" fill="#000" font-family="Arial" font-size="14" text-anchor="start">display_local_time</text><text x="648.236" y="-1073.9" fill="#666" font-family="Arial" font-size="14" text-anchor="start">[boolean]</text><polygon fill="none" stroke="#000" points="523 -1032.5 523 -1062.5 874 -1062.5 874 -1032.5 523 -1032.5"/><text x="530" y="-1043.9" fill="#000" font-family="Arial" font-size="14" text-anchor="start">has_stars_data</text><text x="629.593" y="-1043.9" fill="#666" font-family="Arial" font-size="14" text-anchor="start">[boolean]</text><polygon fill="none" stroke="#000" points="523 -1002.5 523 -1032.5 874 -1032.5 874 -1002.5 523 -1002.5"/><text x="530" y="-1013.9" fill="#000" font-family="Arial" font-size="14" text-anchor="start">is_private</text><text x="593.785" y="-1013.9" fill="#666" font-family="Arial" font-size="14" text-anchor="start">[boolean]</text><polygon fill="none" stroke="#000" points="523 -972.5 523 -1002.5 874 -1002.5 874 -972.5 523 -972.5"/><text x="530" y="-983.9" fill="#000" font-family="Arial" font-size="14" text-anchor="start">is_open_sauced_member</text><text x="694.935" y="-983.9" fill="#666" font-family="Arial" font-size="14" text-anchor="start">[boolean]</text><polygon fill="none" stroke="#000" points="523 -942.5 523 -972.5 874 -972.5 874 -942.5 523 -942.5"/><text x="530" y="-953.9" fill="#000" font-family="Arial" font-size="14" text-anchor="start">is_onboarded</text><text x="618.701" y="-953.9" fill="#666" font-family="Arial" font-size="14" text-anchor="start">[boolean]</text><polygon fill="none" stroke="#000" points="523 -912.5 523 -942.5 874 -942.5 874 -912.5 523 -912.5"/><text x="530" y="-923.9" fill="#000" font-family="Arial" font-size="14" text-anchor="start">is_waitlisted</text><text x="609.335" y="-923.9" fill="#666" font-family="Arial" font-size="14" text-anchor="start">[boolean]</text><polygon fill="none" stroke="#000" points="523 -882.5 523 -912.5 874 -912.5 874 -882.5 523 -882.5"/><text x="530" y="-893.9" fill="#000" font-family="Arial" font-size="14" text-anchor="start">hireable</text><text x="583.677" y="-893.9" fill="#666" font-family="Arial" font-size="14" text-anchor="start">[boolean]</text><polygon fill="none" stroke="#000" points="523 -852.5 523 -882.5 874 -882.5 874 -852.5 523 -852.5"/><text x="530" y="-863.9" fill="#000" font-family="Arial" font-size="14" text-anchor="start">display_email</text><text x="618.673" y="-863.9" fill="#666" font-family="Arial" font-size="14" text-anchor="start">[boolean]</text><polygon fill="none" stroke="#000" points="523 -822.5 523 -852.5 874 -852.5 874 -822.5 523 -822.5"/><text x="530" y="-833.9" fill="#000" font-family="Arial" font-size="14" text-anchor="start">receive_collaboration</text><text x="666.137" y="-833.9" fill="#666" font-family="Arial" font-size="14" text-anchor="start">[boolean]</text><polygon fill="none" stroke="#000" points="523 -792.5 523 -822.5 874 -822.5 874 -792.5 523 -792.5"/><text x="530" y="-803.9" fill="#000" font-family="Arial" font-size="14" text-anchor="start">created_at</text><text x="600.028" y="-803.9" fill="#666" font-family="Arial" font-size="14" text-anchor="start">[timestamp without time zone]</text><polygon fill="none" stroke="#000" points="523 -762.5 523 -792.5 874 -792.5 874 -762.5 523 -762.5"/><text x="530" y="-773.9" fill="#000" font-family="Arial" font-size="14" text-anchor="start">updated_at</text><text x="603.933" y="-773.9" fill="#666" font-family="Arial" font-size="14" text-anchor="start">[timestamp without time zone]</text><polygon fill="none" stroke="#000" points="523 -732.5 523 -762.5 874 -762.5 874 -732.5 523 -732.5"/><text x="530" y="-743.9" fill="#000" font-family="Arial" font-size="14" text-anchor="start">deleted_at</text><text x="599.257" y="-743.9" fill="#666" font-family="Arial" font-size="14" text-anchor="start">[timestamp without time zone]</text><polygon fill="none" stroke="#000" points="523 -702.5 523 -732.5 874 -732.5 874 -702.5 523 -702.5"/><text x="530" y="-713.9" fill="#000" font-family="Arial" font-size="14" text-anchor="start">type</text><text x="560.346" y="-713.9" fill="#666" font-family="Arial" font-size="14" text-anchor="start">[varchar(20)]</text><polygon fill="none" stroke="#000" points="523 -672.5 523 -702.5 874 -702.5 874 -672.5 523 -672.5"/><text x="530" y="-683.9" fill="#000" font-family="Arial" font-size="14" text-anchor="start">timezone</text><text x="590.679" y="-683.9" fill="#666" font-family="Arial" font-size="14" text-anchor="start">[varchar(50)]</text><polygon fill="none" stroke="#000" points="523 -642.5 523 -672.5 874 -672.5 874 -642.5 523 -642.5"/><text x="530" y="-653.9" fill="#000" font-family="Arial" font-size="14" text-anchor="start">login</text><text x="563.452" y="-653.9" fill="#666" font-family="Arial" font-size="14" text-anchor="start">[varchar(255)]</text><polygon fill="none" stroke="#000" points="523 -612.5 523 -642.5 874 -642.5 874 -612.5 523 -612.5"/><text x="530" y="-623.9" fill="#000" font-family="Arial" font-size="14" text-anchor="start">email</text><text x="567.33" y="-623.9" fill="#666" font-family="Arial" font-size="14" text-anchor="start">[varchar(255)]</text><polygon fill="none" stroke="#000" points="523 -582.5 523 -612.5 874 -612.5 874 -582.5 523 -582.5"/><text x="530" y="-593.9" fill="#000" font-family="Arial" font-size="14" text-anchor="start">bio</text><text x="552.562" y="-593.9" fill="#666" font-family="Arial" font-size="14" text-anchor="start">[varchar(255)]</text><polygon fill="none" stroke="#000" points="523 -552.5 523 -582.5 874 -582.5 874 -552.5 523 -552.5"/><text x="530" y="-563.9" fill="#000" font-family="Arial" font-size="14" text-anchor="start">name</text><text x="568.899" y="-563.9" fill="#666" font-family="Arial" font-size="14" text-anchor="start">[varchar(255)]</text><polygon fill="none" stroke="#000" points="523 -522.5 523 -552.5 874 -552.5 874 -522.5 523 -522.5"/><text x="530" y="-533.9" fill="#000" font-family="Arial" font-size="14" text-anchor="start">twitter_username</text><text x="641.236" y="-533.9" fill="#666" font-family="Arial" font-size="14" text-anchor="start">[varchar(15)]</text><polygon fill="none" stroke="#000" points="523 -492.5 523 -522.5 874 -522.5 874 -492.5 523 -492.5"/><text x="530" y="-503.9" fill="#000" font-family="Arial" font-size="14" text-anchor="start">company</text><text x="590.682" y="-503.9" fill="#666" font-family="Arial" font-size="14" text-anchor="start">[varchar(255)]</text><polygon fill="none" stroke="#000" points="523 -462.5 523 -492.5 874 -492.5 874 -462.5 523 -462.5"/><text x="530" y="-473.9" fill="#000" font-family="Arial" font-size="14" text-anchor="start">location</text><text x="582.125" y="-473.9" fill="#666" font-family="Arial" font-size="14" text-anchor="start">[varchar(255)]</text><polygon fill="none" stroke="#000" points="523 -432.5 523 -462.5 874 -462.5 874 -432.5 523 -432.5"/><text x="530" y="-443.9" fill="#000" font-family="Arial" font-size="14" text-anchor="start">node_id</text><text x="583.693" y="-443.9" fill="#666" font-family="Arial" font-size="14" text-anchor="start">[varchar(50)]</text><polygon fill="none" stroke="#000" points="523 -402.5 523 -432.5 874 -432.5 874 -402.5 523 -402.5"/><text x="530" y="-413.9" fill="#000" font-family="Arial" font-size="14" text-anchor="start">avatar_url</text><text x="596.122" y="-413.9" fill="#666" font-family="Arial" font-size="14" text-anchor="start">[varchar(255)]</text><polygon fill="none" stroke="#000" points="523 -372.5 523 -402.5 874 -402.5 874 -372.5 523 -372.5"/><text x="530" y="-383.9" fill="#000" font-family="Arial" font-size="14" text-anchor="start">gravatar_id</text><text x="603.905" y="-383.9" fill="#666" font-family="Arial" font-size="14" text-anchor="start">[varchar(255)]</text><polygon fill="none" stroke="#000" points="523 -342.5 523 -372.5 874 -372.5 874 -342.5 523 -342.5"/><text x="530" y="-353.9" fill="#000" font-family="Arial" font-size="14" text-anchor="start">url</text><text x="549.44" y="-353.9" fill="#666" font-family="Arial" font-size="14" text-anchor="start">[varchar(255)]</text><polygon fill="none" stroke="#000" points="523 -312.5 523 -342.5 874 -342.5 874 -312.5 523 -312.5"/><text x="530" y="-323.9" fill="#000" font-family="Arial" font-size="14" text-anchor="start">blog</text><text x="560.345" y="-323.9" fill="#666" font-family="Arial" font-size="14" text-anchor="start">[varchar(255)]</text><polygon fill="none" stroke="#000" points="523 -282.5 523 -312.5 874 -312.5 874 -282.5 523 -282.5"/><text x="530" y="-293.9" fill="#000" font-family="Arial" font-size="14" text-anchor="start">interests</text><text x="586.787" y="-293.9" fill="#666" font-family="Arial" font-size="14" text-anchor="start">[varchar(200)]</text><polygon fill="none" stroke="#000" points="523 -252.5 523 -282.5 874 -282.5 874 -252.5 523 -252.5"/><text x="530" y="-263.9" fill="#000" font-family="Arial" font-size="14" text-anchor="start">linkedin_url</text><text x="604.673" y="-263.9" fill="#666" font-family="Arial" font-size="14" text-anchor="start">[varchar(255)]</text><polygon fill="none" stroke="#000" points="523 -222.5 523 -252.5 874 -252.5 874 -222.5 523 -222.5"/><text x="530" y="-233.9" fill="#000" font-family="Arial" font-size="14" text-anchor="start">github_sponsors_url</text><text x="659.924" y="-233.9" fill="#666" font-family="Arial" font-size="14" text-anchor="start">[varchar(255)]</text><polygon fill="none" stroke="#000" points="523 -192.5 523 -222.5 874 -222.5 874 -192.5 523 -192.5"/><text x="530" y="-203.9" fill="#000" font-family="Arial" font-size="14" text-anchor="start">last_fetched_users_at</text><text x="670.829" y="-203.9" fill="#666" font-family="Arial" font-size="14" text-anchor="start">[timestamp without time zone]</text><polygon fill="none" stroke="#000" points="523 -162.5 523 -192.5 874 -192.5 874 -162.5 523 -162.5"/><text x="530" y="-173.9" fill="#000" font-family="Arial" font-size="14" text-anchor="start">languages</text><text x="598.475" y="-173.9" fill="#666" font-family="Arial" font-size="14" text-anchor="start">[jsonb]</text><polygon fill="none" stroke="#000" points="523 -132.5 523 -162.5 874 -162.5 874 -132.5 523 -132.5"/><text x="530" y="-143.9" fill="#000" font-family="Arial" font-size="14" text-anchor="start">first_opened_pr_at</text><text x="650.599" y="-143.9" fill="#666" font-family="Arial" font-size="14" text-anchor="start">[timestamp without time zone]</text><polygon fill="none" stroke="#000" points="523 -102.5 523 -132.5 874 -132.5 874 -102.5 523 -102.5"/><text x="529.693" y="-113.9" fill="#000" font-family="Arial" font-size="14" text-anchor="start">first_pushed_commit_at</text><text x="682.167" y="-113.9" fill="#666" font-family="Arial" font-size="14" text-anchor="start">[timestamp without time zone]</text><polygon fill="none" stroke="#000" points="523 -72.5 523 -102.5 874 -102.5 874 -72.5 523 -72.5"/><text x="530" y="-83.9" fill="#000" font-family="Arial" font-size="14" text-anchor="start">connected_at</text><text x="617.933" y="-83.9" fill="#666" font-family="Arial" font-size="14" text-anchor="start">[timestamp without time zone]</text><polygon fill="none" stroke="#000" points="523 -42.5 523 -72.5 874 -72.5 874 -42.5 523 -42.5"/><text x="530" y="-53.9" fill="#000" font-family="Arial" font-size="14" text-anchor="start">discord_url</text><text x="602.338" y="-53.9" fill="#666" font-family="Arial" font-size="14" text-anchor="start">[varchar(255)]</text></g><g id="edge2" class="edge"><title>public.user_highlight_reactions:user_id-&gt;public.users:id</title><path fill="none" stroke="#000" d="M509.7486,-1623.8759C430.2006,-1613.743 460.5908,-1482.7572 520,-1417 573.0088,-1358.3271 820.9912,-1439.6729 874,-1381 901.8581,-1350.1651 915.5556,-1287.5 874,-1287.5"/><polygon fill="#000" stroke="#000" points="510.019 -1623.892 519.726 -1628.992 515.009 -1624.196 520 -1624.5 520 -1624.5 520 -1624.5 515.009 -1624.196 520.274 -1620.008 510.019 -1623.892 510.019 -1623.892"/><text x="66.942" y="-1634.5" fill="#000" font-family="Arial" font-size="10" text-anchor="start">FOREIGN KEY (user_id) REFERENCES users(id) ON UPDATE CASCADE ON DELETE CASCADE</text></g><g id="node4" class="node"><title>public.emojis</title><polygon fill="#efefef" stroke="transparent" points="978 -777.5 978 -812.5 1251 -812.5 1251 -777.5 978 -777.5"/><polygon fill="none" stroke="#000" points="978 -777.5 978 -812.5 1251 -812.5 1251 -777.5 978 -777.5"/><text x="1013.872" y="-790.3" fill="#000" font-family="Arial Bold" font-size="18" text-anchor="start">public.emojis</text><text x="1121.765" y="-790.3" fill="#666" font-family="Arial" font-size="14" text-anchor="start">[BASE TABLE]</text><polygon fill="none" stroke="#000" points="978 -747.5 978 -777.5 1251 -777.5 1251 -747.5 978 -747.5"/><text x="985" y="-758.9" fill="#000" font-family="Arial" font-size="14" text-anchor="start">id</text><text x="999.78" y="-758.9" fill="#666" font-family="Arial" font-size="14" text-anchor="start">[uuid]</text><polygon fill="none" stroke="#000" points="978 -717.5 978 -747.5 1251 -747.5 1251 -717.5 978 -717.5"/><text x="985" y="-728.9" fill="#000" font-family="Arial" font-size="14" text-anchor="start">name</text><text x="1023.899" y="-728.9" fill="#666" font-family="Arial" font-size="14" text-anchor="start">[varchar(255)]</text><polygon fill="none" stroke="#000" points="978 -687.5 978 -717.5 1251 -717.5 1251 -687.5 978 -687.5"/><text x="985" y="-698.9" fill="#000" font-family="Arial" font-size="14" text-anchor="start">url</text><text x="1004.44" y="-698.9" fill="#666" font-family="Arial" font-size="14" text-anchor="start">[varchar(255)]</text><polygon fill="none" stroke="#000" points="978 -657.5 978 -687.5 1251 -687.5 1251 -657.5 978 -657.5"/><text x="985" y="-668.9" fill="#000" font-family="Arial" font-size="14" text-anchor="start">created_at</text><text x="1055.028" y="-668.9" fill="#666" font-family="Arial" font-size="14" text-anchor="start">[timestamp without time zone]</text><polygon fill="none" stroke="#000" points="978 -627.5 978 -657.5 1251 -657.5 1251 -627.5 978 -627.5"/><text x="984.964" y="-638.9" fill="#000" font-family="Arial" font-size="14" text-anchor="start">updated_at</text><text x="1058.896" y="-638.9" fill="#666" font-family="Arial" font-size="14" text-anchor="start">[timestamp without time zone]</text><polygon fill="none" stroke="#000" points="978 -597.5 978 -627.5 1251 -627.5 1251 -597.5 978 -597.5"/><text x="985" y="-608.9" fill="#000" font-family="Arial" font-size="14" text-anchor="start">deleted_at</text><text x="1054.257" y="-608.9" fill="#666" font-family="Arial" font-size="14" text-anchor="start">[timestamp without time zone]</text><polygon fill="none" stroke="#000" points="978 -567.5 978 -597.5 1251 -597.5 1251 -567.5 978 -567.5"/><text x="985" y="-578.9" fill="#000" font-family="Arial" font-size="14" text-anchor="start">display_order</text><text x="1072.903" y="-578.9" fill="#666" font-family="Arial" font-size="14" text-anchor="start">[integer]</text></g><g id="edge3" class="edge"><title>public.user_highlight_reactions:emoji_id-&gt;public.emojis:id</title><path fill="none" stroke="#000" d="M888.1357,-1563.9532C958.0751,-1555.9027 912.3618,-1460.5162 926,-1381 937.6583,-1313.0279 909.0353,-762.5 978,-762.5"/><polygon fill="#000" stroke="#000" points="887.986 -1563.961 877.758 -1560.006 882.993 -1564.231 878 -1564.5 878 -1564.5 878 -1564.5 882.993 -1564.231 878.242 -1568.994 887.986 -1563.961 887.986 -1563.961"/><text x="884.505" y="-1574.5" fill="#000" font-family="Arial" font-size="10" text-anchor="start">FOREIGN KEY (emoji_id) REFERENCES emojis(id) ON UPDATE CASCADE ON DELETE CASCADE</text></g></g></svg>