<svg xmlns="http://www.w3.org/2000/svg" xmlns:xlink="http://www.w3.org/1999/xlink" width="403pt" height="500" viewBox="0 0 403 375"><g id="graph0" class="graph" transform="scale(1 1) rotate(0) translate(4 371)"><title>public.user_notifications</title><polygon fill="#fff" stroke="transparent" points="-4 4 -4 -371 399 -371 399 4 -4 4"/><g id="node1" class="node"><title>public.user_notifications</title><polygon fill="#efefef" stroke="transparent" points="46.5 -285.5 46.5 -320.5 349.5 -320.5 349.5 -285.5 46.5 -285.5"/><polygon fill="none" stroke="#000" points="46.5 -285.5 46.5 -320.5 349.5 -320.5 349.5 -285.5 46.5 -285.5"/><text x="53.353" y="-298.3" fill="#000" font-family="Arial Bold" font-size="18" text-anchor="start">public.user_notifications</text><text x="249.284" y="-298.3" fill="#666" font-family="Arial" font-size="14" text-anchor="start">[BASE TABLE]</text><polygon fill="none" stroke="#000" points="46.5 -255.5 46.5 -285.5 349.5 -285.5 349.5 -255.5 46.5 -255.5"/><text x="53.5" y="-266.9" fill="#000" font-family="Arial" font-size="14" text-anchor="start">id</text><text x="68.28" y="-266.9" fill="#666" font-family="Arial" font-size="14" text-anchor="start">[bigint]</text><polygon fill="none" stroke="#000" points="46.5 -225.5 46.5 -255.5 349.5 -255.5 349.5 -225.5 46.5 -225.5"/><text x="53.5" y="-236.9" fill="#000" font-family="Arial" font-size="14" text-anchor="start">user_id</text><text x="103.288" y="-236.9" fill="#666" font-family="Arial" font-size="14" text-anchor="start">[bigint]</text><polygon fill="none" stroke="#000" points="46.5 -195.5 46.5 -225.5 349.5 -225.5 349.5 -195.5 46.5 -195.5"/><text x="53.5" y="-206.9" fill="#000" font-family="Arial" font-size="14" text-anchor="start">type</text><text x="83.846" y="-206.9" fill="#666" font-family="Arial" font-size="14" text-anchor="start">[varchar]</text><polygon fill="none" stroke="#000" points="46.5 -165.5 46.5 -195.5 349.5 -195.5 349.5 -165.5 46.5 -165.5"/><text x="53.5" y="-176.9" fill="#000" font-family="Arial" font-size="14" text-anchor="start">notified_at</text><text x="121.971" y="-176.9" fill="#666" font-family="Arial" font-size="14" text-anchor="start">[timestamp with time zone]</text><polygon fill="none" stroke="#000" points="46.5 -135.5 46.5 -165.5 349.5 -165.5 349.5 -135.5 46.5 -135.5"/><text x="53.5" y="-146.9" fill="#000" font-family="Arial" font-size="14" text-anchor="start">read_at</text><text x="104.855" y="-146.9" fill="#666" font-family="Arial" font-size="14" text-anchor="start">[timestamp without time zone]</text><polygon fill="none" stroke="#000" points="46.5 -105.5 46.5 -135.5 349.5 -135.5 349.5 -105.5 46.5 -105.5"/><text x="53.5" y="-116.9" fill="#000" font-family="Arial" font-size="14" text-anchor="start">message</text><text x="114.182" y="-116.9" fill="#666" font-family="Arial" font-size="14" text-anchor="start">[varchar(100)]</text><polygon fill="none" stroke="#000" points="46.5 -75.5 46.5 -105.5 349.5 -105.5 349.5 -75.5 46.5 -75.5"/><text x="53.5" y="-86.9" fill="#000" font-family="Arial" font-size="14" text-anchor="start">from_user_id</text><text x="139.065" y="-86.9" fill="#666" font-family="Arial" font-size="14" text-anchor="start">[bigint]</text><polygon fill="none" stroke="#000" points="46.5 -45.5 46.5 -75.5 349.5 -75.5 349.5 -45.5 46.5 -45.5"/><text x="53.5" y="-56.9" fill="#000" font-family="Arial" font-size="14" text-anchor="start">meta_id</text><text x="107.179" y="-56.9" fill="#666" font-family="Arial" font-size="14" text-anchor="start">[varchar(32)]</text><polygon fill="none" stroke="#000" stroke-width="3" points="44.5 -44.5 44.5 -322.5 350.5 -322.5 350.5 -44.5 44.5 -44.5"/></g></g></svg>