<svg xmlns="http://www.w3.org/2000/svg" xmlns:xlink="http://www.w3.org/1999/xlink" width="1354pt" height="1756pt" viewBox="0 0 1354 1756"><g id="graph0" class="graph" transform="scale(1 1) rotate(0) translate(4 1752)"><title>public.emojis</title><polygon fill="#fff" stroke="transparent" points="-4 4 -4 -1752 1350 -1752 1350 4 -4 4"/><g id="node1" class="node"><title>public.emojis</title><polygon fill="#efefef" stroke="transparent" points="91 -777.5 91 -812.5 364 -812.5 364 -777.5 91 -777.5"/><polygon fill="none" stroke="#000" points="91 -777.5 91 -812.5 364 -812.5 364 -777.5 91 -777.5"/><text x="126.872" y="-790.3" fill="#000" font-family="Arial Bold" font-size="18" text-anchor="start">public.emojis</text><text x="234.765" y="-790.3" fill="#666" font-family="Arial" font-size="14" text-anchor="start">[BASE TABLE]</text><polygon fill="none" stroke="#000" points="91 -747.5 91 -777.5 364 -777.5 364 -747.5 91 -747.5"/><text x="98" y="-758.9" fill="#000" font-family="Arial" font-size="14" text-anchor="start">id</text><text x="112.78" y="-758.9" fill="#666" font-family="Arial" font-size="14" text-anchor="start">[uuid]</text><polygon fill="none" stroke="#000" points="91 -717.5 91 -747.5 364 -747.5 364 -717.5 91 -717.5"/><text x="98" y="-728.9" fill="#000" font-family="Arial" font-size="14" text-anchor="start">name</text><text x="136.899" y="-728.9" fill="#666" font-family="Arial" font-size="14" text-anchor="start">[varchar(255)]</text><polygon fill="none" stroke="#000" points="91 -687.5 91 -717.5 364 -717.5 364 -687.5 91 -687.5"/><text x="98" y="-698.9" fill="#000" font-family="Arial" font-size="14" text-anchor="start">url</text><text x="117.44" y="-698.9" fill="#666" font-family="Arial" font-size="14" text-anchor="start">[varchar(255)]</text><polygon fill="none" stroke="#000" points="91 -657.5 91 -687.5 364 -687.5 364 -657.5 91 -657.5"/><text x="98" y="-668.9" fill="#000" font-family="Arial" font-size="14" text-anchor="start">created_at</text><text x="168.028" y="-668.9" fill="#666" font-family="Arial" font-size="14" text-anchor="start">[timestamp without time zone]</text><polygon fill="none" stroke="#000" points="91 -627.5 91 -657.5 364 -657.5 364 -627.5 91 -627.5"/><text x="97.964" y="-638.9" fill="#000" font-family="Arial" font-size="14" text-anchor="start">updated_at</text><text x="171.896" y="-638.9" fill="#666" font-family="Arial" font-size="14" text-anchor="start">[timestamp without time zone]</text><polygon fill="none" stroke="#000" points="91 -597.5 91 -627.5 364 -627.5 364 -597.5 91 -597.5"/><text x="98" y="-608.9" fill="#000" font-family="Arial" font-size="14" text-anchor="start">deleted_at</text><text x="167.257" y="-608.9" fill="#666" font-family="Arial" font-size="14" text-anchor="start">[timestamp without time zone]</text><polygon fill="none" stroke="#000" points="91 -567.5 91 -597.5 364 -597.5 364 -567.5 91 -567.5"/><text x="98" y="-578.9" fill="#000" font-family="Arial" font-size="14" text-anchor="start">display_order</text><text x="185.903" y="-578.9" fill="#666" font-family="Arial" font-size="14" text-anchor="start">[integer]</text><polygon fill="none" stroke="#000" stroke-width="3" points="89 -566.5 89 -814.5 365 -814.5 365 -566.5 89 -566.5"/></g><g id="node2" class="node"><title>public.user_highlight_reactions</title><polygon fill="#efefef" stroke="transparent" points="468 -1669.5 468 -1704.5 826 -1704.5 826 -1669.5 468 -1669.5"/><polygon fill="none" stroke="#000" points="468 -1669.5 468 -1704.5 826 -1704.5 826 -1669.5 468 -1669.5"/><text x="474.845" y="-1682.3" fill="#000" font-family="Arial Bold" font-size="18" text-anchor="start">public.user_highlight_reactions</text><text x="725.791" y="-1682.3" fill="#666" font-family="Arial" font-size="14" text-anchor="start">[BASE TABLE]</text><polygon fill="none" stroke="#000" points="468 -1639.5 468 -1669.5 826 -1669.5 826 -1639.5 468 -1639.5"/><text x="475" y="-1650.9" fill="#000" font-family="Arial" font-size="14" text-anchor="start">id</text><text x="489.78" y="-1650.9" fill="#666" font-family="Arial" font-size="14" text-anchor="start">[uuid]</text><polygon fill="none" stroke="#000" points="468 -1609.5 468 -1639.5 826 -1639.5 826 -1609.5 468 -1609.5"/><text x="475" y="-1620.9" fill="#000" font-family="Arial" font-size="14" text-anchor="start">user_id</text><text x="524.788" y="-1620.9" fill="#666" font-family="Arial" font-size="14" text-anchor="start">[bigint]</text><polygon fill="none" stroke="#000" points="468 -1579.5 468 -1609.5 826 -1609.5 826 -1579.5 468 -1579.5"/><text x="475" y="-1590.9" fill="#000" font-family="Arial" font-size="14" text-anchor="start">highlight_id</text><text x="549.686" y="-1590.9" fill="#666" font-family="Arial" font-size="14" text-anchor="start">[bigint]</text><polygon fill="none" stroke="#000" points="468 -1549.5 468 -1579.5 826 -1579.5 826 -1549.5 468 -1549.5"/><text x="475" y="-1560.9" fill="#000" font-family="Arial" font-size="14" text-anchor="start">emoji_id</text><text x="531.001" y="-1560.9" fill="#666" font-family="Arial" font-size="14" text-anchor="start">[uuid]</text><polygon fill="none" stroke="#000" points="468 -1519.5 468 -1549.5 826 -1549.5 826 -1519.5 468 -1519.5"/><text x="475" y="-1530.9" fill="#000" font-family="Arial" font-size="14" text-anchor="start">created_at</text><text x="545.028" y="-1530.9" fill="#666" font-family="Arial" font-size="14" text-anchor="start">[timestamp without time zone]</text><polygon fill="none" stroke="#000" points="468 -1489.5 468 -1519.5 826 -1519.5 826 -1489.5 468 -1489.5"/><text x="475" y="-1500.9" fill="#000" font-family="Arial" font-size="14" text-anchor="start">updated_at</text><text x="548.933" y="-1500.9" fill="#666" font-family="Arial" font-size="14" text-anchor="start">[timestamp without time zone]</text><polygon fill="none" stroke="#000" points="468 -1459.5 468 -1489.5 826 -1489.5 826 -1459.5 468 -1459.5"/><text x="475" y="-1470.9" fill="#000" font-family="Arial" font-size="14" text-anchor="start">deleted_at</text><text x="544.257" y="-1470.9" fill="#666" font-family="Arial" font-size="14" text-anchor="start">[timestamp without time zone]</text></g><g id="edge1" class="edge"><title>public.user_highlight_reactions:emoji_id-&gt;public.emojis:id</title><path fill="none" stroke="#000" d="M457.8297,-1563.9538C387.5957,-1555.9133 432.2086,-1460.6392 418,-1381 405.8838,-1313.0887 432.9836,-762.5 364,-762.5"/><polygon fill="#000" stroke="#000" points="458.014 -1563.964 467.759 -1568.994 463.007 -1564.232 468 -1564.5 468 -1564.5 468 -1564.5 463.007 -1564.232 468.241 -1560.006 458.014 -1563.964 458.014 -1563.964"/><text x="6.505" y="-1574.5" fill="#000" font-family="Arial" font-size="10" text-anchor="start">FOREIGN KEY (emoji_id) REFERENCES emojis(id) ON UPDATE CASCADE ON DELETE CASCADE</text></g><g id="node3" class="node"><title>public.users</title><polygon fill="#efefef" stroke="transparent" points="471 -1302.5 471 -1337.5 822 -1337.5 822 -1302.5 471 -1302.5"/><polygon fill="none" stroke="#000" points="471 -1302.5 471 -1337.5 822 -1337.5 822 -1302.5 471 -1302.5"/><text x="549.866" y="-1315.3" fill="#000" font-family="Arial Bold" font-size="18" text-anchor="start">public.users</text><text x="649.771" y="-1315.3" fill="#666" font-family="Arial" font-size="14" text-anchor="start">[BASE TABLE]</text><polygon fill="none" stroke="#000" points="471 -1272.5 471 -1302.5 822 -1302.5 822 -1272.5 471 -1272.5"/><text x="478" y="-1283.9" fill="#000" font-family="Arial" font-size="14" text-anchor="start">id</text><text x="492.78" y="-1283.9" fill="#666" font-family="Arial" font-size="14" text-anchor="start">[bigint]</text><polygon fill="none" stroke="#000" points="471 -1242.5 471 -1272.5 822 -1272.5 822 -1242.5 471 -1242.5"/><text x="478" y="-1253.9" fill="#000" font-family="Arial" font-size="14" text-anchor="start">open_issues</text><text x="560.475" y="-1253.9" fill="#666" font-family="Arial" font-size="14" text-anchor="start">[bigint]</text><polygon fill="none" stroke="#000" points="471 -1212.5 471 -1242.5 822 -1242.5 822 -1212.5 471 -1212.5"/><text x="478" y="-1223.9" fill="#000" font-family="Arial" font-size="14" text-anchor="start">public_repos</text><text x="561.243" y="-1223.9" fill="#666" font-family="Arial" font-size="14" text-anchor="start">[bigint]</text><polygon fill="none" stroke="#000" points="471 -1182.5 471 -1212.5 822 -1212.5 822 -1182.5 471 -1182.5"/><text x="478" y="-1193.9" fill="#000" font-family="Arial" font-size="14" text-anchor="start">public_gists</text><text x="555.014" y="-1193.9" fill="#666" font-family="Arial" font-size="14" text-anchor="start">[bigint]</text><polygon fill="none" stroke="#000" points="471 -1152.5 471 -1182.5 822 -1182.5 822 -1152.5 471 -1152.5"/><text x="478" y="-1163.9" fill="#000" font-family="Arial" font-size="14" text-anchor="start">followers</text><text x="537.109" y="-1163.9" fill="#666" font-family="Arial" font-size="14" text-anchor="start">[bigint]</text><polygon fill="none" stroke="#000" points="471 -1122.5 471 -1152.5 822 -1152.5 822 -1122.5 471 -1122.5"/><text x="478" y="-1133.9" fill="#000" font-family="Arial" font-size="14" text-anchor="start">following</text><text x="536.338" y="-1133.9" fill="#666" font-family="Arial" font-size="14" text-anchor="start">[bigint]</text><polygon fill="none" stroke="#000" points="471 -1092.5 471 -1122.5 822 -1122.5 822 -1092.5 471 -1092.5"/><text x="478" y="-1103.9" fill="#000" font-family="Arial" font-size="14" text-anchor="start">role</text><text x="505.223" y="-1103.9" fill="#666" font-family="Arial" font-size="14" text-anchor="start">[bigint]</text><polygon fill="none" stroke="#000" points="471 -1062.5 471 -1092.5 822 -1092.5 822 -1062.5 471 -1062.5"/><text x="478" y="-1073.9" fill="#000" font-family="Arial" font-size="14" text-anchor="start">display_local_time</text><text x="596.236" y="-1073.9" fill="#666" font-family="Arial" font-size="14" text-anchor="start">[boolean]</text><polygon fill="none" stroke="#000" points="471 -1032.5 471 -1062.5 822 -1062.5 822 -1032.5 471 -1032.5"/><text x="478" y="-1043.9" fill="#000" font-family="Arial" font-size="14" text-anchor="start">has_stars_data</text><text x="577.593" y="-1043.9" fill="#666" font-family="Arial" font-size="14" text-anchor="start">[boolean]</text><polygon fill="none" stroke="#000" points="471 -1002.5 471 -1032.5 822 -1032.5 822 -1002.5 471 -1002.5"/><text x="478" y="-1013.9" fill="#000" font-family="Arial" font-size="14" text-anchor="start">is_private</text><text x="541.785" y="-1013.9" fill="#666" font-family="Arial" font-size="14" text-anchor="start">[boolean]</text><polygon fill="none" stroke="#000" points="471 -972.5 471 -1002.5 822 -1002.5 822 -972.5 471 -972.5"/><text x="478" y="-983.9" fill="#000" font-family="Arial" font-size="14" text-anchor="start">is_open_sauced_member</text><text x="642.935" y="-983.9" fill="#666" font-family="Arial" font-size="14" text-anchor="start">[boolean]</text><polygon fill="none" stroke="#000" points="471 -942.5 471 -972.5 822 -972.5 822 -942.5 471 -942.5"/><text x="478" y="-953.9" fill="#000" font-family="Arial" font-size="14" text-anchor="start">is_onboarded</text><text x="566.701" y="-953.9" fill="#666" font-family="Arial" font-size="14" text-anchor="start">[boolean]</text><polygon fill="none" stroke="#000" points="471 -912.5 471 -942.5 822 -942.5 822 -912.5 471 -912.5"/><text x="478" y="-923.9" fill="#000" font-family="Arial" font-size="14" text-anchor="start">is_waitlisted</text><text x="557.335" y="-923.9" fill="#666" font-family="Arial" font-size="14" text-anchor="start">[boolean]</text><polygon fill="none" stroke="#000" points="471 -882.5 471 -912.5 822 -912.5 822 -882.5 471 -882.5"/><text x="478" y="-893.9" fill="#000" font-family="Arial" font-size="14" text-anchor="start">hireable</text><text x="531.677" y="-893.9" fill="#666" font-family="Arial" font-size="14" text-anchor="start">[boolean]</text><polygon fill="none" stroke="#000" points="471 -852.5 471 -882.5 822 -882.5 822 -852.5 471 -852.5"/><text x="478" y="-863.9" fill="#000" font-family="Arial" font-size="14" text-anchor="start">display_email</text><text x="566.673" y="-863.9" fill="#666" font-family="Arial" font-size="14" text-anchor="start">[boolean]</text><polygon fill="none" stroke="#000" points="471 -822.5 471 -852.5 822 -852.5 822 -822.5 471 -822.5"/><text x="478" y="-833.9" fill="#000" font-family="Arial" font-size="14" text-anchor="start">receive_collaboration</text><text x="614.137" y="-833.9" fill="#666" font-family="Arial" font-size="14" text-anchor="start">[boolean]</text><polygon fill="none" stroke="#000" points="471 -792.5 471 -822.5 822 -822.5 822 -792.5 471 -792.5"/><text x="478" y="-803.9" fill="#000" font-family="Arial" font-size="14" text-anchor="start">created_at</text><text x="548.028" y="-803.9" fill="#666" font-family="Arial" font-size="14" text-anchor="start">[timestamp without time zone]</text><polygon fill="none" stroke="#000" points="471 -762.5 471 -792.5 822 -792.5 822 -762.5 471 -762.5"/><text x="478" y="-773.9" fill="#000" font-family="Arial" font-size="14" text-anchor="start">updated_at</text><text x="551.933" y="-773.9" fill="#666" font-family="Arial" font-size="14" text-anchor="start">[timestamp without time zone]</text><polygon fill="none" stroke="#000" points="471 -732.5 471 -762.5 822 -762.5 822 -732.5 471 -732.5"/><text x="478" y="-743.9" fill="#000" font-family="Arial" font-size="14" text-anchor="start">deleted_at</text><text x="547.257" y="-743.9" fill="#666" font-family="Arial" font-size="14" text-anchor="start">[timestamp without time zone]</text><polygon fill="none" stroke="#000" points="471 -702.5 471 -732.5 822 -732.5 822 -702.5 471 -702.5"/><text x="478" y="-713.9" fill="#000" font-family="Arial" font-size="14" text-anchor="start">type</text><text x="508.346" y="-713.9" fill="#666" font-family="Arial" font-size="14" text-anchor="start">[varchar(20)]</text><polygon fill="none" stroke="#000" points="471 -672.5 471 -702.5 822 -702.5 822 -672.5 471 -672.5"/><text x="478" y="-683.9" fill="#000" font-family="Arial" font-size="14" text-anchor="start">timezone</text><text x="538.679" y="-683.9" fill="#666" font-family="Arial" font-size="14" text-anchor="start">[varchar(50)]</text><polygon fill="none" stroke="#000" points="471 -642.5 471 -672.5 822 -672.5 822 -642.5 471 -642.5"/><text x="478" y="-653.9" fill="#000" font-family="Arial" font-size="14" text-anchor="start">login</text><text x="511.452" y="-653.9" fill="#666" font-family="Arial" font-size="14" text-anchor="start">[varchar(255)]</text><polygon fill="none" stroke="#000" points="471 -612.5 471 -642.5 822 -642.5 822 -612.5 471 -612.5"/><text x="478" y="-623.9" fill="#000" font-family="Arial" font-size="14" text-anchor="start">email</text><text x="515.33" y="-623.9" fill="#666" font-family="Arial" font-size="14" text-anchor="start">[varchar(255)]</text><polygon fill="none" stroke="#000" points="471 -582.5 471 -612.5 822 -612.5 822 -582.5 471 -582.5"/><text x="478" y="-593.9" fill="#000" font-family="Arial" font-size="14" text-anchor="start">bio</text><text x="500.562" y="-593.9" fill="#666" font-family="Arial" font-size="14" text-anchor="start">[varchar(255)]</text><polygon fill="none" stroke="#000" points="471 -552.5 471 -582.5 822 -582.5 822 -552.5 471 -552.5"/><text x="478" y="-563.9" fill="#000" font-family="Arial" font-size="14" text-anchor="start">name</text><text x="516.899" y="-563.9" fill="#666" font-family="Arial" font-size="14" text-anchor="start">[varchar(255)]</text><polygon fill="none" stroke="#000" points="471 -522.5 471 -552.5 822 -552.5 822 -522.5 471 -522.5"/><text x="478" y="-533.9" fill="#000" font-family="Arial" font-size="14" text-anchor="start">twitter_username</text><text x="589.236" y="-533.9" fill="#666" font-family="Arial" font-size="14" text-anchor="start">[varchar(15)]</text><polygon fill="none" stroke="#000" points="471 -492.5 471 -522.5 822 -522.5 822 -492.5 471 -492.5"/><text x="478" y="-503.9" fill="#000" font-family="Arial" font-size="14" text-anchor="start">company</text><text x="538.682" y="-503.9" fill="#666" font-family="Arial" font-size="14" text-anchor="start">[varchar(255)]</text><polygon fill="none" stroke="#000" points="471 -462.5 471 -492.5 822 -492.5 822 -462.5 471 -462.5"/><text x="478" y="-473.9" fill="#000" font-family="Arial" font-size="14" text-anchor="start">location</text><text x="530.125" y="-473.9" fill="#666" font-family="Arial" font-size="14" text-anchor="start">[varchar(255)]</text><polygon fill="none" stroke="#000" points="471 -432.5 471 -462.5 822 -462.5 822 -432.5 471 -432.5"/><text x="478" y="-443.9" fill="#000" font-family="Arial" font-size="14" text-anchor="start">node_id</text><text x="531.693" y="-443.9" fill="#666" font-family="Arial" font-size="14" text-anchor="start">[varchar(50)]</text><polygon fill="none" stroke="#000" points="471 -402.5 471 -432.5 822 -432.5 822 -402.5 471 -402.5"/><text x="478" y="-413.9" fill="#000" font-family="Arial" font-size="14" text-anchor="start">avatar_url</text><text x="544.122" y="-413.9" fill="#666" font-family="Arial" font-size="14" text-anchor="start">[varchar(255)]</text><polygon fill="none" stroke="#000" points="471 -372.5 471 -402.5 822 -402.5 822 -372.5 471 -372.5"/><text x="478" y="-383.9" fill="#000" font-family="Arial" font-size="14" text-anchor="start">gravatar_id</text><text x="551.905" y="-383.9" fill="#666" font-family="Arial" font-size="14" text-anchor="start">[varchar(255)]</text><polygon fill="none" stroke="#000" points="471 -342.5 471 -372.5 822 -372.5 822 -342.5 471 -342.5"/><text x="478" y="-353.9" fill="#000" font-family="Arial" font-size="14" text-anchor="start">url</text><text x="497.44" y="-353.9" fill="#666" font-family="Arial" font-size="14" text-anchor="start">[varchar(255)]</text><polygon fill="none" stroke="#000" points="471 -312.5 471 -342.5 822 -342.5 822 -312.5 471 -312.5"/><text x="478" y="-323.9" fill="#000" font-family="Arial" font-size="14" text-anchor="start">blog</text><text x="508.345" y="-323.9" fill="#666" font-family="Arial" font-size="14" text-anchor="start">[varchar(255)]</text><polygon fill="none" stroke="#000" points="471 -282.5 471 -312.5 822 -312.5 822 -282.5 471 -282.5"/><text x="478" y="-293.9" fill="#000" font-family="Arial" font-size="14" text-anchor="start">interests</text><text x="534.787" y="-293.9" fill="#666" font-family="Arial" font-size="14" text-anchor="start">[varchar(200)]</text><polygon fill="none" stroke="#000" points="471 -252.5 471 -282.5 822 -282.5 822 -252.5 471 -252.5"/><text x="478" y="-263.9" fill="#000" font-family="Arial" font-size="14" text-anchor="start">linkedin_url</text><text x="552.673" y="-263.9" fill="#666" font-family="Arial" font-size="14" text-anchor="start">[varchar(255)]</text><polygon fill="none" stroke="#000" points="471 -222.5 471 -252.5 822 -252.5 822 -222.5 471 -222.5"/><text x="478" y="-233.9" fill="#000" font-family="Arial" font-size="14" text-anchor="start">github_sponsors_url</text><text x="607.924" y="-233.9" fill="#666" font-family="Arial" font-size="14" text-anchor="start">[varchar(255)]</text><polygon fill="none" stroke="#000" points="471 -192.5 471 -222.5 822 -222.5 822 -192.5 471 -192.5"/><text x="478" y="-203.9" fill="#000" font-family="Arial" font-size="14" text-anchor="start">last_fetched_users_at</text><text x="618.829" y="-203.9" fill="#666" font-family="Arial" font-size="14" text-anchor="start">[timestamp without time zone]</text><polygon fill="none" stroke="#000" points="471 -162.5 471 -192.5 822 -192.5 822 -162.5 471 -162.5"/><text x="478" y="-173.9" fill="#000" font-family="Arial" font-size="14" text-anchor="start">languages</text><text x="546.475" y="-173.9" fill="#666" font-family="Arial" font-size="14" text-anchor="start">[jsonb]</text><polygon fill="none" stroke="#000" points="471 -132.5 471 -162.5 822 -162.5 822 -132.5 471 -132.5"/><text x="478" y="-143.9" fill="#000" font-family="Arial" font-size="14" text-anchor="start">first_opened_pr_at</text><text x="598.599" y="-143.9" fill="#666" font-family="Arial" font-size="14" text-anchor="start">[timestamp without time zone]</text><polygon fill="none" stroke="#000" points="471 -102.5 471 -132.5 822 -132.5 822 -102.5 471 -102.5"/><text x="477.693" y="-113.9" fill="#000" font-family="Arial" font-size="14" text-anchor="start">first_pushed_commit_at</text><text x="630.167" y="-113.9" fill="#666" font-family="Arial" font-size="14" text-anchor="start">[timestamp without time zone]</text><polygon fill="none" stroke="#000" points="471 -72.5 471 -102.5 822 -102.5 822 -72.5 471 -72.5"/><text x="478" y="-83.9" fill="#000" font-family="Arial" font-size="14" text-anchor="start">connected_at</text><text x="565.933" y="-83.9" fill="#666" font-family="Arial" font-size="14" text-anchor="start">[timestamp without time zone]</text><polygon fill="none" stroke="#000" points="471 -42.5 471 -72.5 822 -72.5 822 -42.5 471 -42.5"/><text x="478" y="-53.9" fill="#000" font-family="Arial" font-size="14" text-anchor="start">discord_url</text><text x="550.338" y="-53.9" fill="#666" font-family="Arial" font-size="14" text-anchor="start">[varchar(255)]</text></g><g id="edge2" class="edge"><title>public.user_highlight_reactions:user_id-&gt;public.users:id</title><path fill="none" stroke="#000" d="M457.7486,-1623.8759C378.2006,-1613.743 408.5908,-1482.7572 468,-1417 521.0088,-1358.3271 768.9912,-1439.6729 822,-1381 849.8581,-1350.1651 863.5556,-1287.5 822,-1287.5"/><polygon fill="#000" stroke="#000" points="458.019 -1623.892 467.726 -1628.992 463.009 -1624.196 468 -1624.5 468 -1624.5 468 -1624.5 463.009 -1624.196 468.274 -1620.008 458.019 -1623.892 458.019 -1623.892"/><text x="14.943" y="-1634.5" fill="#000" font-family="Arial" font-size="10" text-anchor="start">FOREIGN KEY (user_id) REFERENCES users(id) ON UPDATE CASCADE ON DELETE CASCADE</text></g><g id="node4" class="node"><title>public.user_highlights</title><polygon fill="#efefef" stroke="transparent" points="926 -852.5 926 -887.5 1210 -887.5 1210 -852.5 926 -852.5"/><polygon fill="none" stroke="#000" points="926 -852.5 926 -887.5 1210 -887.5 1210 -852.5 926 -852.5"/><text x="932.855" y="-865.3" fill="#000" font-family="Arial Bold" font-size="18" text-anchor="start">public.user_highlights</text><text x="1109.782" y="-865.3" fill="#666" font-family="Arial" font-size="14" text-anchor="start">[BASE TABLE]</text><polygon fill="none" stroke="#000" points="926 -822.5 926 -852.5 1210 -852.5 1210 -822.5 926 -822.5"/><text x="933" y="-833.9" fill="#000" font-family="Arial" font-size="14" text-anchor="start">id</text><text x="947.78" y="-833.9" fill="#666" font-family="Arial" font-size="14" text-anchor="start">[bigint]</text><polygon fill="none" stroke="#000" points="926 -792.5 926 -822.5 1210 -822.5 1210 -792.5 926 -792.5"/><text x="933" y="-803.9" fill="#000" font-family="Arial" font-size="14" text-anchor="start">user_id</text><text x="982.788" y="-803.9" fill="#666" font-family="Arial" font-size="14" text-anchor="start">[bigint]</text><polygon fill="none" stroke="#000" points="926 -762.5 926 -792.5 1210 -792.5 1210 -762.5 926 -762.5"/><text x="933" y="-773.9" fill="#000" font-family="Arial" font-size="14" text-anchor="start">url</text><text x="952.44" y="-773.9" fill="#666" font-family="Arial" font-size="14" text-anchor="start">[varchar(255)]</text><polygon fill="none" stroke="#000" points="926 -732.5 926 -762.5 1210 -762.5 1210 -732.5 926 -732.5"/><text x="933" y="-743.9" fill="#000" font-family="Arial" font-size="14" text-anchor="start">highlight</text><text x="989.014" y="-743.9" fill="#666" font-family="Arial" font-size="14" text-anchor="start">[varchar(500)]</text><polygon fill="none" stroke="#000" points="926 -702.5 926 -732.5 1210 -732.5 1210 -702.5 926 -702.5"/><text x="933" y="-713.9" fill="#000" font-family="Arial" font-size="14" text-anchor="start">pinned</text><text x="978.91" y="-713.9" fill="#666" font-family="Arial" font-size="14" text-anchor="start">[boolean]</text><polygon fill="none" stroke="#000" points="926 -672.5 926 -702.5 1210 -702.5 1210 -672.5 926 -672.5"/><text x="933" y="-683.9" fill="#000" font-family="Arial" font-size="14" text-anchor="start">created_at</text><text x="1003.028" y="-683.9" fill="#666" font-family="Arial" font-size="14" text-anchor="start">[timestamp with time zone]</text><polygon fill="none" stroke="#000" points="926 -642.5 926 -672.5 1210 -672.5 1210 -642.5 926 -642.5"/><text x="933" y="-653.9" fill="#000" font-family="Arial" font-size="14" text-anchor="start">updated_at</text><text x="1006.933" y="-653.9" fill="#666" font-family="Arial" font-size="14" text-anchor="start">[timestamp with time zone]</text><polygon fill="none" stroke="#000" points="926 -612.5 926 -642.5 1210 -642.5 1210 -612.5 926 -612.5"/><text x="933" y="-623.9" fill="#000" font-family="Arial" font-size="14" text-anchor="start">deleted_at</text><text x="1002.257" y="-623.9" fill="#666" font-family="Arial" font-size="14" text-anchor="start">[timestamp with time zone]</text><polygon fill="none" stroke="#000" points="926 -582.5 926 -612.5 1210 -612.5 1210 -582.5 926 -582.5"/><text x="933" y="-593.9" fill="#000" font-family="Arial" font-size="14" text-anchor="start">title</text><text x="958.668" y="-593.9" fill="#666" font-family="Arial" font-size="14" text-anchor="start">[varchar(100)]</text><polygon fill="none" stroke="#000" points="926 -552.5 926 -582.5 1210 -582.5 1210 -552.5 926 -552.5"/><text x="933" y="-563.9" fill="#000" font-family="Arial" font-size="14" text-anchor="start">shipped_at</text><text x="1005.366" y="-563.9" fill="#666" font-family="Arial" font-size="14" text-anchor="start">[timestamp without time zone]</text><polygon fill="none" stroke="#000" points="926 -522.5 926 -552.5 1210 -552.5 1210 -522.5 926 -522.5"/><text x="933" y="-533.9" fill="#000" font-family="Arial" font-size="14" text-anchor="start">featured</text><text x="988.245" y="-533.9" fill="#666" font-family="Arial" font-size="14" text-anchor="start">[boolean]</text><polygon fill="none" stroke="#000" points="926 -492.5 926 -522.5 1210 -522.5 1210 -492.5 926 -492.5"/><text x="933" y="-503.9" fill="#000" font-family="Arial" font-size="14" text-anchor="start">type</text><text x="963.346" y="-503.9" fill="#666" font-family="Arial" font-size="14" text-anchor="start">[varchar(25)]</text></g><g id="edge3" class="edge"><title>public.user_highlight_reactions:highlight_id-&gt;public.user_highlights:id</title><path fill="none" stroke="#000" d="M836.1712,-1594.0218C918.574,-1585.8119 859.2404,-1473.4779 874,-1381 883.5612,-1321.0935 865.3353,-837.5 926,-837.5"/><polygon fill="#000" stroke="#000" points="835.989 -1594.03 825.789 -1590.005 830.995 -1594.265 826 -1594.5 826 -1594.5 826 -1594.5 830.995 -1594.265 826.211 -1598.995 835.989 -1594.03 835.989 -1594.03"/><text x="832.655" y="-1604.5" fill="#000" font-family="Arial" font-size="10" text-anchor="start">FOREIGN KEY (highlight_id) REFERENCES user_highlights(id) ON UPDATE CASCADE ON DELETE CASCADE</text></g></g></svg>