<svg xmlns="http://www.w3.org/2000/svg" xmlns:xlink="http://www.w3.org/1999/xlink" width="370pt" height="1900" viewBox="0 0 370 1425"><g id="graph0" class="graph" transform="scale(1 1) rotate(0) translate(4 1421)"><title>public.pg_stat_statements</title><polygon fill="#fff" stroke="transparent" points="-4 4 -4 -1421 366 -1421 366 4 -4 4"/><g id="node1" class="node"><title>public.pg_stat_statements</title><polygon fill="#efefef" stroke="transparent" points="46 -1335.5 46 -1370.5 316 -1370.5 316 -1335.5 46 -1335.5"/><polygon fill="none" stroke="#000" points="46 -1335.5 46 -1370.5 316 -1370.5 316 -1335.5 46 -1335.5"/><text x="52.741" y="-1348.3" fill="#000" font-family="Arial Bold" font-size="18" text-anchor="start">public.pg_stat_statements</text><text x="265.7" y="-1348.3" fill="#666" font-family="Arial" font-size="14" text-anchor="start">[VIEW]</text><polygon fill="none" stroke="#000" points="46 -1305.5 46 -1335.5 316 -1335.5 316 -1305.5 46 -1305.5"/><text x="53" y="-1316.9" fill="#000" font-family="Arial" font-size="14" text-anchor="start">userid</text><text x="95.006" y="-1316.9" fill="#666" font-family="Arial" font-size="14" text-anchor="start">[oid]</text><polygon fill="none" stroke="#000" points="46 -1275.5 46 -1305.5 316 -1305.5 316 -1275.5 46 -1275.5"/><text x="53" y="-1286.9" fill="#000" font-family="Arial" font-size="14" text-anchor="start">dbid</text><text x="83.345" y="-1286.9" fill="#666" font-family="Arial" font-size="14" text-anchor="start">[oid]</text><polygon fill="none" stroke="#000" points="46 -1245.5 46 -1275.5 316 -1275.5 316 -1245.5 46 -1245.5"/><text x="53" y="-1256.9" fill="#000" font-family="Arial" font-size="14" text-anchor="start">toplevel</text><text x="105.125" y="-1256.9" fill="#666" font-family="Arial" font-size="14" text-anchor="start">[boolean]</text><polygon fill="none" stroke="#000" points="46 -1215.5 46 -1245.5 316 -1245.5 316 -1215.5 46 -1215.5"/><text x="53" y="-1226.9" fill="#000" font-family="Arial" font-size="14" text-anchor="start">queryid</text><text x="102.788" y="-1226.9" fill="#666" font-family="Arial" font-size="14" text-anchor="start">[bigint]</text><polygon fill="none" stroke="#000" points="46 -1185.5 46 -1215.5 316 -1215.5 316 -1185.5 46 -1185.5"/><text x="53" y="-1196.9" fill="#000" font-family="Arial" font-size="14" text-anchor="start">query</text><text x="91.899" y="-1196.9" fill="#666" font-family="Arial" font-size="14" text-anchor="start">[text]</text><polygon fill="none" stroke="#000" points="46 -1155.5 46 -1185.5 316 -1185.5 316 -1155.5 46 -1155.5"/><text x="53" y="-1166.9" fill="#000" font-family="Arial" font-size="14" text-anchor="start">plans</text><text x="90.345" y="-1166.9" fill="#666" font-family="Arial" font-size="14" text-anchor="start">[bigint]</text><polygon fill="none" stroke="#000" points="46 -1125.5 46 -1155.5 316 -1155.5 316 -1125.5 46 -1125.5"/><text x="53" y="-1136.9" fill="#000" font-family="Arial" font-size="14" text-anchor="start">total_plan_time</text><text x="151.804" y="-1136.9" fill="#666" font-family="Arial" font-size="14" text-anchor="start">[double precision]</text><polygon fill="none" stroke="#000" points="46 -1095.5 46 -1125.5 316 -1125.5 316 -1095.5 46 -1095.5"/><text x="53" y="-1106.9" fill="#000" font-family="Arial" font-size="14" text-anchor="start">min_plan_time</text><text x="147.9" y="-1106.9" fill="#666" font-family="Arial" font-size="14" text-anchor="start">[double precision]</text><polygon fill="none" stroke="#000" points="46 -1065.5 46 -1095.5 316 -1095.5 316 -1065.5 46 -1065.5"/><text x="53" y="-1076.9" fill="#000" font-family="Arial" font-size="14" text-anchor="start">max_plan_time</text><text x="151.794" y="-1076.9" fill="#666" font-family="Arial" font-size="14" text-anchor="start">[double precision]</text><polygon fill="none" stroke="#000" points="46 -1035.5 46 -1065.5 316 -1065.5 316 -1035.5 46 -1035.5"/><text x="53" y="-1046.9" fill="#000" font-family="Arial" font-size="14" text-anchor="start">mean_plan_time</text><text x="160.359" y="-1046.9" fill="#666" font-family="Arial" font-size="14" text-anchor="start">[double precision]</text><polygon fill="none" stroke="#000" points="46 -1005.5 46 -1035.5 316 -1035.5 316 -1005.5 46 -1005.5"/><text x="53" y="-1016.9" fill="#000" font-family="Arial" font-size="14" text-anchor="start">stddev_plan_time</text><text x="166.589" y="-1016.9" fill="#666" font-family="Arial" font-size="14" text-anchor="start">[double precision]</text><polygon fill="none" stroke="#000" points="46 -975.5 46 -1005.5 316 -1005.5 316 -975.5 46 -975.5"/><text x="53" y="-986.9" fill="#000" font-family="Arial" font-size="14" text-anchor="start">calls</text><text x="84.886" y="-986.9" fill="#666" font-family="Arial" font-size="14" text-anchor="start">[bigint]</text><polygon fill="none" stroke="#000" points="46 -945.5 46 -975.5 316 -975.5 316 -945.5 46 -945.5"/><text x="53" y="-956.9" fill="#000" font-family="Arial" font-size="14" text-anchor="start">total_exec_time</text><text x="154.914" y="-956.9" fill="#666" font-family="Arial" font-size="14" text-anchor="start">[double precision]</text><polygon fill="none" stroke="#000" points="46 -915.5 46 -945.5 316 -945.5 316 -915.5 46 -915.5"/><text x="53" y="-926.9" fill="#000" font-family="Arial" font-size="14" text-anchor="start">min_exec_time</text><text x="151.011" y="-926.9" fill="#666" font-family="Arial" font-size="14" text-anchor="start">[double precision]</text><polygon fill="none" stroke="#000" points="46 -885.5 46 -915.5 316 -915.5 316 -885.5 46 -885.5"/><text x="53" y="-896.9" fill="#000" font-family="Arial" font-size="14" text-anchor="start">max_exec_time</text><text x="154.905" y="-896.9" fill="#666" font-family="Arial" font-size="14" text-anchor="start">[double precision]</text><polygon fill="none" stroke="#000" points="46 -855.5 46 -885.5 316 -885.5 316 -855.5 46 -855.5"/><text x="53" y="-866.9" fill="#000" font-family="Arial" font-size="14" text-anchor="start">mean_exec_time</text><text x="163.47" y="-866.9" fill="#666" font-family="Arial" font-size="14" text-anchor="start">[double precision]</text><polygon fill="none" stroke="#000" points="46 -825.5 46 -855.5 316 -855.5 316 -825.5 46 -825.5"/><text x="53" y="-836.9" fill="#000" font-family="Arial" font-size="14" text-anchor="start">stddev_exec_time</text><text x="169.7" y="-836.9" fill="#666" font-family="Arial" font-size="14" text-anchor="start">[double precision]</text><polygon fill="none" stroke="#000" points="46 -795.5 46 -825.5 316 -825.5 316 -795.5 46 -795.5"/><text x="53" y="-806.9" fill="#000" font-family="Arial" font-size="14" text-anchor="start">rows</text><text x="86.44" y="-806.9" fill="#666" font-family="Arial" font-size="14" text-anchor="start">[bigint]</text><polygon fill="none" stroke="#000" points="46 -765.5 46 -795.5 316 -795.5 316 -765.5 46 -765.5"/><text x="53" y="-776.9" fill="#000" font-family="Arial" font-size="14" text-anchor="start">shared_blks_hit</text><text x="154.916" y="-776.9" fill="#666" font-family="Arial" font-size="14" text-anchor="start">[bigint]</text><polygon fill="none" stroke="#000" points="46 -735.5 46 -765.5 316 -765.5 316 -735.5 46 -735.5"/><text x="53" y="-746.9" fill="#000" font-family="Arial" font-size="14" text-anchor="start">shared_blks_read</text><text x="168.144" y="-746.9" fill="#666" font-family="Arial" font-size="14" text-anchor="start">[bigint]</text><polygon fill="none" stroke="#000" points="46 -705.5 46 -735.5 316 -735.5 316 -705.5 46 -705.5"/><text x="53" y="-716.9" fill="#000" font-family="Arial" font-size="14" text-anchor="start">shared_blks_dirtied</text><text x="178.248" y="-716.9" fill="#666" font-family="Arial" font-size="14" text-anchor="start">[bigint]</text><polygon fill="none" stroke="#000" points="46 -675.5 46 -705.5 316 -705.5 316 -675.5 46 -675.5"/><text x="53" y="-686.9" fill="#000" font-family="Arial" font-size="14" text-anchor="start">shared_blks_written</text><text x="181.356" y="-686.9" fill="#666" font-family="Arial" font-size="14" text-anchor="start">[bigint]</text><polygon fill="none" stroke="#000" points="46 -645.5 46 -675.5 316 -675.5 316 -645.5 46 -645.5"/><text x="53" y="-656.9" fill="#000" font-family="Arial" font-size="14" text-anchor="start">local_blks_hit</text><text x="140.903" y="-656.9" fill="#666" font-family="Arial" font-size="14" text-anchor="start">[bigint]</text><polygon fill="none" stroke="#000" points="46 -615.5 46 -645.5 316 -645.5 316 -615.5 46 -615.5"/><text x="53" y="-626.9" fill="#000" font-family="Arial" font-size="14" text-anchor="start">local_blks_read</text><text x="154.132" y="-626.9" fill="#666" font-family="Arial" font-size="14" text-anchor="start">[bigint]</text><polygon fill="none" stroke="#000" points="46 -585.5 46 -615.5 316 -615.5 316 -585.5 46 -585.5"/><text x="53" y="-596.9" fill="#000" font-family="Arial" font-size="14" text-anchor="start">local_blks_dirtied</text><text x="164.236" y="-596.9" fill="#666" font-family="Arial" font-size="14" text-anchor="start">[bigint]</text><polygon fill="none" stroke="#000" points="46 -555.5 46 -585.5 316 -585.5 316 -555.5 46 -555.5"/><text x="53" y="-566.9" fill="#000" font-family="Arial" font-size="14" text-anchor="start">local_blks_written</text><text x="167.344" y="-566.9" fill="#666" font-family="Arial" font-size="14" text-anchor="start">[bigint]</text><polygon fill="none" stroke="#000" points="46 -525.5 46 -555.5 316 -555.5 316 -525.5 46 -525.5"/><text x="53" y="-536.9" fill="#000" font-family="Arial" font-size="14" text-anchor="start">temp_blks_read</text><text x="156.47" y="-536.9" fill="#666" font-family="Arial" font-size="14" text-anchor="start">[bigint]</text><polygon fill="none" stroke="#000" points="46 -495.5 46 -525.5 316 -525.5 316 -495.5 46 -495.5"/><text x="53" y="-506.9" fill="#000" font-family="Arial" font-size="14" text-anchor="start">temp_blks_written</text><text x="169.682" y="-506.9" fill="#666" font-family="Arial" font-size="14" text-anchor="start">[bigint]</text><polygon fill="none" stroke="#000" points="46 -465.5 46 -495.5 316 -495.5 316 -465.5 46 -465.5"/><text x="53" y="-476.9" fill="#000" font-family="Arial" font-size="14" text-anchor="start">blk_read_time</text><text x="144.794" y="-476.9" fill="#666" font-family="Arial" font-size="14" text-anchor="start">[double precision]</text><polygon fill="none" stroke="#000" points="46 -435.5 46 -465.5 316 -465.5 316 -435.5 46 -435.5"/><text x="53" y="-446.9" fill="#000" font-family="Arial" font-size="14" text-anchor="start">blk_write_time</text><text x="146.332" y="-446.9" fill="#666" font-family="Arial" font-size="14" text-anchor="start">[double precision]</text><polygon fill="none" stroke="#000" points="46 -405.5 46 -435.5 316 -435.5 316 -405.5 46 -405.5"/><text x="53" y="-416.9" fill="#000" font-family="Arial" font-size="14" text-anchor="start">temp_blk_read_time</text><text x="183.693" y="-416.9" fill="#666" font-family="Arial" font-size="14" text-anchor="start">[double precision]</text><polygon fill="none" stroke="#000" points="46 -375.5 46 -405.5 316 -405.5 316 -375.5 46 -375.5"/><text x="53" y="-386.9" fill="#000" font-family="Arial" font-size="14" text-anchor="start">temp_blk_write_time</text><text x="185.231" y="-386.9" fill="#666" font-family="Arial" font-size="14" text-anchor="start">[double precision]</text><polygon fill="none" stroke="#000" points="46 -345.5 46 -375.5 316 -375.5 316 -345.5 46 -345.5"/><text x="53" y="-356.9" fill="#000" font-family="Arial" font-size="14" text-anchor="start">wal_records</text><text x="132.338" y="-356.9" fill="#666" font-family="Arial" font-size="14" text-anchor="start">[bigint]</text><polygon fill="none" stroke="#000" points="46 -315.5 46 -345.5 316 -345.5 316 -315.5 46 -315.5"/><text x="53" y="-326.9" fill="#000" font-family="Arial" font-size="14" text-anchor="start">wal_fpi</text><text x="100.449" y="-326.9" fill="#666" font-family="Arial" font-size="14" text-anchor="start">[bigint]</text><polygon fill="none" stroke="#000" points="46 -285.5 46 -315.5 316 -315.5 316 -285.5 46 -285.5"/><text x="53" y="-296.9" fill="#000" font-family="Arial" font-size="14" text-anchor="start">wal_bytes</text><text x="119.125" y="-296.9" fill="#666" font-family="Arial" font-size="14" text-anchor="start">[numeric]</text><polygon fill="none" stroke="#000" points="46 -255.5 46 -285.5 316 -285.5 316 -255.5 46 -255.5"/><text x="53" y="-266.9" fill="#000" font-family="Arial" font-size="14" text-anchor="start">jit_functions</text><text x="130.795" y="-266.9" fill="#666" font-family="Arial" font-size="14" text-anchor="start">[bigint]</text><polygon fill="none" stroke="#000" points="46 -225.5 46 -255.5 316 -255.5 316 -225.5 46 -225.5"/><text x="53" y="-236.9" fill="#000" font-family="Arial" font-size="14" text-anchor="start">jit_generation_time</text><text x="175.136" y="-236.9" fill="#666" font-family="Arial" font-size="14" text-anchor="start">[double precision]</text><polygon fill="none" stroke="#000" points="46 -195.5 46 -225.5 316 -225.5 316 -195.5 46 -195.5"/><text x="53" y="-206.9" fill="#000" font-family="Arial" font-size="14" text-anchor="start">jit_inlining_count</text><text x="160.355" y="-206.9" fill="#666" font-family="Arial" font-size="14" text-anchor="start">[bigint]</text><polygon fill="none" stroke="#000" points="46 -165.5 46 -195.5 316 -195.5 316 -165.5 46 -165.5"/><text x="53" y="-176.9" fill="#000" font-family="Arial" font-size="14" text-anchor="start">jit_inlining_time</text><text x="152.557" y="-176.9" fill="#666" font-family="Arial" font-size="14" text-anchor="start">[double precision]</text><polygon fill="none" stroke="#000" points="46 -135.5 46 -165.5 316 -165.5 316 -135.5 46 -135.5"/><text x="53" y="-146.9" fill="#000" font-family="Arial" font-size="14" text-anchor="start">jit_optimization_count</text><text x="191.473" y="-146.9" fill="#666" font-family="Arial" font-size="14" text-anchor="start">[bigint]</text><polygon fill="none" stroke="#000" points="46 -105.5 46 -135.5 316 -135.5 316 -105.5 46 -105.5"/><text x="53" y="-116.9" fill="#000" font-family="Arial" font-size="14" text-anchor="start">jit_optimization_time</text><text x="183.675" y="-116.9" fill="#666" font-family="Arial" font-size="14" text-anchor="start">[double precision]</text><polygon fill="none" stroke="#000" points="46 -75.5 46 -105.5 316 -105.5 316 -75.5 46 -75.5"/><text x="53" y="-86.9" fill="#000" font-family="Arial" font-size="14" text-anchor="start">jit_emission_count</text><text x="172.02" y="-86.9" fill="#666" font-family="Arial" font-size="14" text-anchor="start">[bigint]</text><polygon fill="none" stroke="#000" points="46 -45.5 46 -75.5 316 -75.5 316 -45.5 46 -45.5"/><text x="53" y="-56.9" fill="#000" font-family="Arial" font-size="14" text-anchor="start">jit_emission_time</text><text x="164.222" y="-56.9" fill="#666" font-family="Arial" font-size="14" text-anchor="start">[double precision]</text><polygon fill="none" stroke="#000" stroke-width="3" points="44.5 -44.5 44.5 -1372.5 317.5 -1372.5 317.5 -44.5 44.5 -44.5"/></g></g></svg>