<svg xmlns="http://www.w3.org/2000/svg" xmlns:xlink="http://www.w3.org/1999/xlink" width="346pt" height="260" viewBox="0 0 346 195"><g id="graph0" class="graph" transform="scale(1 1) rotate(0) translate(4 191)"><title>public.customers</title><polygon fill="#fff" stroke="transparent" points="-4 4 -4 -191 342 -191 342 4 -4 4"/><g id="node1" class="node"><title>public.customers</title><polygon fill="#efefef" stroke="transparent" points="46 -105.5 46 -140.5 292 -140.5 292 -105.5 46 -105.5"/><polygon fill="none" stroke="#000" points="46 -105.5 46 -140.5 292 -140.5 292 -105.5 46 -105.5"/><text x="52.866" y="-118.3" fill="#000" font-family="Arial Bold" font-size="18" text-anchor="start">public.customers</text><text x="191.771" y="-118.3" fill="#666" font-family="Arial" font-size="14" text-anchor="start">[BASE TABLE]</text><polygon fill="none" stroke="#000" points="46 -75.5 46 -105.5 292 -105.5 292 -75.5 46 -75.5"/><text x="53" y="-86.9" fill="#000" font-family="Arial" font-size="14" text-anchor="start">id</text><text x="67.78" y="-86.9" fill="#666" font-family="Arial" font-size="14" text-anchor="start">[bigint]</text><polygon fill="none" stroke="#000" points="46 -45.5 46 -75.5 292 -75.5 292 -45.5 46 -45.5"/><text x="53" y="-56.9" fill="#000" font-family="Arial" font-size="14" text-anchor="start">stripe_customer_id</text><text x="175.128" y="-56.9" fill="#666" font-family="Arial" font-size="14" text-anchor="start">[text]</text><polygon fill="none" stroke="#000" stroke-width="3" points="44.5 -44.5 44.5 -142.5 293.5 -142.5 293.5 -44.5 44.5 -44.5"/></g></g></svg>