<svg xmlns="http://www.w3.org/2000/svg" xmlns:xlink="http://www.w3.org/1999/xlink" width="1800" height="532pt" viewBox="0 0 1350 532"><g id="graph0" class="graph" transform="scale(1 1) rotate(0) translate(4 528)"><title>public.commits</title><polygon fill="#fff" stroke="transparent" points="-4 4 -4 -528 1346 -528 1346 4 -4 4"/><g id="node1" class="node"><title>public.commits</title><polygon fill="#efefef" stroke="transparent" points="526 -442.5 526 -477.5 789 -477.5 789 -442.5 526 -442.5"/><polygon fill="none" stroke="#000" points="526 -442.5 526 -477.5 789 -477.5 789 -442.5 526 -442.5"/><text x="549.375" y="-455.3" fill="#000" font-family="Arial Bold" font-size="18" text-anchor="start">public.commits</text><text x="672.262" y="-455.3" fill="#666" font-family="Arial" font-size="14" text-anchor="start">[BASE TABLE]</text><polygon fill="none" stroke="#000" points="526 -412.5 526 -442.5 789 -442.5 789 -412.5 526 -412.5"/><text x="533" y="-423.9" fill="#000" font-family="Arial" font-size="14" text-anchor="start">id</text><text x="547.78" y="-423.9" fill="#666" font-family="Arial" font-size="14" text-anchor="start">[bigint]</text><polygon fill="none" stroke="#000" points="526 -382.5 526 -412.5 789 -412.5 789 -382.5 526 -382.5"/><text x="533" y="-393.9" fill="#000" font-family="Arial" font-size="14" text-anchor="start">baked_repo_id</text><text x="629.484" y="-393.9" fill="#666" font-family="Arial" font-size="14" text-anchor="start">[bigint]</text><polygon fill="none" stroke="#000" points="526 -352.5 526 -382.5 789 -382.5 789 -352.5 526 -352.5"/><text x="533" y="-363.9" fill="#000" font-family="Arial" font-size="14" text-anchor="start">commit_author_id</text><text x="648.128" y="-363.9" fill="#666" font-family="Arial" font-size="14" text-anchor="start">[bigint]</text><polygon fill="none" stroke="#000" points="526 -322.5 526 -352.5 789 -352.5 789 -322.5 526 -322.5"/><text x="533" y="-333.9" fill="#000" font-family="Arial" font-size="14" text-anchor="start">commit_hash</text><text x="620.122" y="-333.9" fill="#666" font-family="Arial" font-size="14" text-anchor="start">[varchar(255)]</text><polygon fill="none" stroke="#000" points="526 -292.5 526 -322.5 789 -322.5 789 -292.5 526 -292.5"/><text x="532.652" y="-303.9" fill="#000" font-family="Arial" font-size="14" text-anchor="start">commit_date</text><text x="616.664" y="-303.9" fill="#666" font-family="Arial" font-size="14" text-anchor="start">[timestamp with time zone]</text><polygon fill="none" stroke="#000" stroke-width="3" points="524 -291.5 524 -479.5 790 -479.5 790 -291.5 524 -291.5"/></g><g id="node2" class="node"><title>public.baked_repos</title><polygon fill="#efefef" stroke="transparent" points="333 -132.5 333 -167.5 600 -167.5 600 -132.5 333 -132.5"/><polygon fill="none" stroke="#000" points="333 -132.5 333 -167.5 600 -167.5 600 -132.5 333 -132.5"/><text x="339.848" y="-145.3" fill="#000" font-family="Arial Bold" font-size="18" text-anchor="start">public.baked_repos</text><text x="499.789" y="-145.3" fill="#666" font-family="Arial" font-size="14" text-anchor="start">[BASE TABLE]</text><polygon fill="none" stroke="#000" points="333 -102.5 333 -132.5 600 -132.5 600 -102.5 333 -102.5"/><text x="340" y="-113.9" fill="#000" font-family="Arial" font-size="14" text-anchor="start">id</text><text x="354.78" y="-113.9" fill="#666" font-family="Arial" font-size="14" text-anchor="start">[bigint]</text><polygon fill="none" stroke="#000" points="333 -72.5 333 -102.5 600 -102.5 600 -72.5 333 -72.5"/><text x="340" y="-83.9" fill="#000" font-family="Arial" font-size="14" text-anchor="start">clone_url</text><text x="400.677" y="-83.9" fill="#666" font-family="Arial" font-size="14" text-anchor="start">[varchar(255)]</text><polygon fill="none" stroke="#000" points="333 -42.5 333 -72.5 600 -72.5 600 -42.5 333 -42.5"/><text x="340" y="-53.9" fill="#000" font-family="Arial" font-size="14" text-anchor="start">repo_id</text><text x="390.571" y="-53.9" fill="#666" font-family="Arial" font-size="14" text-anchor="start">[bigint]</text></g><g id="edge1" class="edge"><title>public.commits:baked_repo_id-&gt;public.baked_repos:id</title><path fill="none" stroke="#000" d="M515.8926,-396.6799C462.5592,-387.3523 492.4657,-300.606 526,-247 545.397,-215.993 580.603,-242.007 600,-211 622.0388,-175.77 641.5556,-117.5 600,-117.5"/><polygon fill="#000" stroke="#000" points="516.033 -396.691 525.636 -401.985 521.016 -397.096 526 -397.5 526 -397.5 526 -397.5 521.016 -397.096 526.364 -393.015 516.033 -396.691 516.033 -396.691"/><text x="6.588" y="-407.5" fill="#000" font-family="Arial" font-size="10" text-anchor="start">FOREIGN KEY (baked_repo_id) REFERENCES baked_repos(id) ON UPDATE CASCADE ON DELETE CASCADE</text></g><g id="node3" class="node"><title>public.commit_authors</title><polygon fill="#efefef" stroke="transparent" points="704 -117.5 704 -152.5 995 -152.5 995 -117.5 704 -117.5"/><polygon fill="none" stroke="#000" points="704 -117.5 704 -152.5 995 -152.5 995 -117.5 704 -117.5"/><text x="710.862" y="-130.3" fill="#000" font-family="Arial Bold" font-size="18" text-anchor="start">public.commit_authors</text><text x="894.774" y="-130.3" fill="#666" font-family="Arial" font-size="14" text-anchor="start">[BASE TABLE]</text><polygon fill="none" stroke="#000" points="704 -87.5 704 -117.5 995 -117.5 995 -87.5 704 -87.5"/><text x="711" y="-98.9" fill="#000" font-family="Arial" font-size="14" text-anchor="start">id</text><text x="725.78" y="-98.9" fill="#666" font-family="Arial" font-size="14" text-anchor="start">[bigint]</text><polygon fill="none" stroke="#000" points="704 -57.5 704 -87.5 995 -87.5 995 -57.5 704 -57.5"/><text x="711" y="-68.9" fill="#000" font-family="Arial" font-size="14" text-anchor="start">commit_author_email</text><text x="848.677" y="-68.9" fill="#666" font-family="Arial" font-size="14" text-anchor="start">[varchar(255)]</text></g><g id="edge2" class="edge"><title>public.commits:commit_author_id-&gt;public.commit_authors:id</title><path fill="none" stroke="#000" d="M799.1279,-366.4392C838.7388,-357.2433 813.5314,-290.3272 789,-247 767.2936,-208.6624 725.7064,-234.3376 704,-196 683.5256,-159.8384 662.4444,-102.5 704,-102.5"/><polygon fill="#000" stroke="#000" points="798.946 -366.458 788.531 -363.024 793.973 -366.979 789 -367.5 789 -367.5 789 -367.5 793.973 -366.979 789.469 -371.976 798.946 -366.458 798.946 -366.458"/><text x="796.271" y="-377.5" fill="#000" font-family="Arial" font-size="10" text-anchor="start">FOREIGN KEY (commit_author_id) REFERENCES commit_authors(id) ON UPDATE CASCADE ON DELETE CASCADE</text></g></g></svg>