<svg xmlns="http://www.w3.org/2000/svg" xmlns:xlink="http://www.w3.org/1999/xlink" width="353pt" height="340" viewBox="0 0 353 255"><g id="graph0" class="graph" transform="scale(1 1) rotate(0) translate(4 251)"><title>public.user_repos</title><polygon fill="#fff" stroke="transparent" points="-4 4 -4 -251 349 -251 349 4 -4 4"/><g id="node1" class="node"><title>public.user_repos</title><polygon fill="#efefef" stroke="transparent" points="46.5 -165.5 46.5 -200.5 299.5 -200.5 299.5 -165.5 46.5 -165.5"/><polygon fill="none" stroke="#000" points="46.5 -165.5 46.5 -200.5 299.5 -200.5 299.5 -165.5 46.5 -165.5"/><text x="53.358" y="-178.3" fill="#000" font-family="Arial Bold" font-size="18" text-anchor="start">public.user_repos</text><text x="199.279" y="-178.3" fill="#666" font-family="Arial" font-size="14" text-anchor="start">[BASE TABLE]</text><polygon fill="none" stroke="#000" points="46.5 -135.5 46.5 -165.5 299.5 -165.5 299.5 -135.5 46.5 -135.5"/><text x="53.5" y="-146.9" fill="#000" font-family="Arial" font-size="14" text-anchor="start">id</text><text x="68.28" y="-146.9" fill="#666" font-family="Arial" font-size="14" text-anchor="start">[bigint]</text><polygon fill="none" stroke="#000" points="46.5 -105.5 46.5 -135.5 299.5 -135.5 299.5 -105.5 46.5 -105.5"/><text x="53.5" y="-116.9" fill="#000" font-family="Arial" font-size="14" text-anchor="start">user_id</text><text x="103.288" y="-116.9" fill="#666" font-family="Arial" font-size="14" text-anchor="start">[bigint]</text><polygon fill="none" stroke="#000" points="46.5 -75.5 46.5 -105.5 299.5 -105.5 299.5 -75.5 46.5 -75.5"/><text x="53.5" y="-86.9" fill="#000" font-family="Arial" font-size="14" text-anchor="start">repo_id</text><text x="104.071" y="-86.9" fill="#666" font-family="Arial" font-size="14" text-anchor="start">[bigint]</text><polygon fill="none" stroke="#000" points="46.5 -45.5 46.5 -75.5 299.5 -75.5 299.5 -45.5 46.5 -45.5"/><text x="53.5" y="-56.9" fill="#000" font-family="Arial" font-size="14" text-anchor="start">created_at</text><text x="123.528" y="-56.9" fill="#666" font-family="Arial" font-size="14" text-anchor="start">[timestamp with time zone]</text><polygon fill="none" stroke="#000" stroke-width="3" points="44.5 -44.5 44.5 -202.5 300.5 -202.5 300.5 -44.5 44.5 -44.5"/></g></g></svg>