<svg xmlns="http://www.w3.org/2000/svg" xmlns:xlink="http://www.w3.org/1999/xlink" width="1708" height="1816pt" viewBox="0 0 1281 1816"><g id="graph0" class="graph" transform="scale(1 1) rotate(0) translate(4 1812)"><title>public.insights</title><polygon fill="#fff" stroke="transparent" points="-4 4 -4 -1812 1277 -1812 1277 4 -4 4"/><g id="node1" class="node"><title>public.insights</title><polygon fill="#efefef" stroke="transparent" points="303 -807.5 303 -842.5 571 -842.5 571 -807.5 303 -807.5"/><polygon fill="none" stroke="#000" points="303 -807.5 303 -842.5 571 -842.5 571 -807.5 303 -807.5"/><text x="331.864" y="-820.3" fill="#000" font-family="Arial Bold" font-size="18" text-anchor="start">public.insights</text><text x="448.773" y="-820.3" fill="#666" font-family="Arial" font-size="14" text-anchor="start">[BASE TABLE]</text><polygon fill="none" stroke="#000" points="303 -777.5 303 -807.5 571 -807.5 571 -777.5 303 -777.5"/><text x="310" y="-788.9" fill="#000" font-family="Arial" font-size="14" text-anchor="start">id</text><text x="324.78" y="-788.9" fill="#666" font-family="Arial" font-size="14" text-anchor="start">[bigint]</text><polygon fill="none" stroke="#000" points="303 -747.5 303 -777.5 571 -777.5 571 -747.5 303 -747.5"/><text x="310" y="-758.9" fill="#000" font-family="Arial" font-size="14" text-anchor="start">user_id</text><text x="359.788" y="-758.9" fill="#666" font-family="Arial" font-size="14" text-anchor="start">[bigint]</text><polygon fill="none" stroke="#000" points="303 -717.5 303 -747.5 571 -747.5 571 -717.5 303 -717.5"/><text x="310" y="-728.9" fill="#000" font-family="Arial" font-size="14" text-anchor="start">name</text><text x="348.899" y="-728.9" fill="#666" font-family="Arial" font-size="14" text-anchor="start">[varchar]</text><polygon fill="none" stroke="#000" points="303 -687.5 303 -717.5 571 -717.5 571 -687.5 303 -687.5"/><text x="310" y="-698.9" fill="#000" font-family="Arial" font-size="14" text-anchor="start">is_public</text><text x="368.341" y="-698.9" fill="#666" font-family="Arial" font-size="14" text-anchor="start">[boolean]</text><polygon fill="none" stroke="#000" points="303 -657.5 303 -687.5 571 -687.5 571 -657.5 303 -657.5"/><text x="310" y="-668.9" fill="#000" font-family="Arial" font-size="14" text-anchor="start">is_favorite</text><text x="377.676" y="-668.9" fill="#666" font-family="Arial" font-size="14" text-anchor="start">[boolean]</text><polygon fill="none" stroke="#000" points="303 -627.5 303 -657.5 571 -657.5 571 -627.5 303 -627.5"/><text x="310" y="-638.9" fill="#000" font-family="Arial" font-size="14" text-anchor="start">short_code</text><text x="383.137" y="-638.9" fill="#666" font-family="Arial" font-size="14" text-anchor="start">[varchar]</text><polygon fill="none" stroke="#000" points="303 -597.5 303 -627.5 571 -627.5 571 -597.5 303 -597.5"/><text x="310" y="-608.9" fill="#000" font-family="Arial" font-size="14" text-anchor="start">created_at</text><text x="380.028" y="-608.9" fill="#666" font-family="Arial" font-size="14" text-anchor="start">[timestamp with time zone]</text><polygon fill="none" stroke="#000" points="303 -567.5 303 -597.5 571 -597.5 571 -567.5 303 -567.5"/><text x="310" y="-578.9" fill="#000" font-family="Arial" font-size="14" text-anchor="start">updated_at</text><text x="383.933" y="-578.9" fill="#666" font-family="Arial" font-size="14" text-anchor="start">[timestamp with time zone]</text><polygon fill="none" stroke="#000" points="303 -537.5 303 -567.5 571 -567.5 571 -537.5 303 -537.5"/><text x="309.802" y="-548.9" fill="#000" font-family="Arial" font-size="14" text-anchor="start">deleted_at</text><text x="379.058" y="-548.9" fill="#666" font-family="Arial" font-size="14" text-anchor="start">[timestamp without time zone]</text><polygon fill="none" stroke="#000" stroke-width="3" points="301.5 -536.5 301.5 -844.5 572.5 -844.5 572.5 -536.5 301.5 -536.5"/></g><g id="node2" class="node"><title>public.insight_members</title><polygon fill="#efefef" stroke="transparent" points="479 -1729.5 479 -1764.5 813 -1764.5 813 -1729.5 479 -1729.5"/><polygon fill="none" stroke="#000" points="479 -1729.5 479 -1764.5 813 -1764.5 813 -1729.5 479 -1729.5"/><text x="502.863" y="-1742.3" fill="#000" font-family="Arial Bold" font-size="18" text-anchor="start">public.insight_members</text><text x="695.774" y="-1742.3" fill="#666" font-family="Arial" font-size="14" text-anchor="start">[BASE TABLE]</text><polygon fill="none" stroke="#000" points="479 -1699.5 479 -1729.5 813 -1729.5 813 -1699.5 479 -1699.5"/><text x="486" y="-1710.9" fill="#000" font-family="Arial" font-size="14" text-anchor="start">id</text><text x="500.78" y="-1710.9" fill="#666" font-family="Arial" font-size="14" text-anchor="start">[uuid]</text><polygon fill="none" stroke="#000" points="479 -1669.5 479 -1699.5 813 -1699.5 813 -1669.5 479 -1669.5"/><text x="486" y="-1680.9" fill="#000" font-family="Arial" font-size="14" text-anchor="start">user_id</text><text x="535.788" y="-1680.9" fill="#666" font-family="Arial" font-size="14" text-anchor="start">[bigint]</text><polygon fill="none" stroke="#000" points="479 -1639.5 479 -1669.5 813 -1669.5 813 -1639.5 479 -1639.5"/><text x="486" y="-1650.9" fill="#000" font-family="Arial" font-size="14" text-anchor="start">insight_id</text><text x="549.014" y="-1650.9" fill="#666" font-family="Arial" font-size="14" text-anchor="start">[bigint]</text><polygon fill="none" stroke="#000" points="479 -1609.5 479 -1639.5 813 -1639.5 813 -1609.5 479 -1609.5"/><text x="486" y="-1620.9" fill="#000" font-family="Arial" font-size="14" text-anchor="start">created_at</text><text x="556.028" y="-1620.9" fill="#666" font-family="Arial" font-size="14" text-anchor="start">[timestamp without time zone]</text><polygon fill="none" stroke="#000" points="479 -1579.5 479 -1609.5 813 -1609.5 813 -1579.5 479 -1579.5"/><text x="486" y="-1590.9" fill="#000" font-family="Arial" font-size="14" text-anchor="start">updated_at</text><text x="559.933" y="-1590.9" fill="#666" font-family="Arial" font-size="14" text-anchor="start">[timestamp without time zone]</text><polygon fill="none" stroke="#000" points="479 -1549.5 479 -1579.5 813 -1579.5 813 -1549.5 479 -1549.5"/><text x="486" y="-1560.9" fill="#000" font-family="Arial" font-size="14" text-anchor="start">deleted_at</text><text x="555.257" y="-1560.9" fill="#666" font-family="Arial" font-size="14" text-anchor="start">[timestamp without time zone]</text><polygon fill="none" stroke="#000" points="479 -1519.5 479 -1549.5 813 -1549.5 813 -1519.5 479 -1519.5"/><text x="485.748" y="-1530.9" fill="#000" font-family="Arial" font-size="14" text-anchor="start">invitation_emailed_at</text><text x="621.112" y="-1530.9" fill="#666" font-family="Arial" font-size="14" text-anchor="start">[timestamp without time zone]</text><polygon fill="none" stroke="#000" points="479 -1489.5 479 -1519.5 813 -1519.5 813 -1489.5 479 -1489.5"/><text x="486" y="-1500.9" fill="#000" font-family="Arial" font-size="14" text-anchor="start">access</text><text x="533.456" y="-1500.9" fill="#666" font-family="Arial" font-size="14" text-anchor="start">[varchar(20)]</text><polygon fill="none" stroke="#000" points="479 -1459.5 479 -1489.5 813 -1489.5 813 -1459.5 479 -1459.5"/><text x="486" y="-1470.9" fill="#000" font-family="Arial" font-size="14" text-anchor="start">invitation_email</text><text x="586.344" y="-1470.9" fill="#666" font-family="Arial" font-size="14" text-anchor="start">[varchar(255)]</text></g><g id="edge1" class="edge"><title>public.insight_members:insight_id-&gt;public.insights:id</title><path fill="none" stroke="#000" d="M468.96,-1653.6207C303.8377,-1622.8085 760.069,-792.5 571,-792.5"/><polygon fill="#000" stroke="#000" points="469.038 -1653.628 478.607 -1658.983 474.019 -1654.064 479 -1654.5 479 -1654.5 479 -1654.5 474.019 -1654.064 479.393 -1650.017 469.038 -1653.628 469.038 -1653.628"/><text x="7.495" y="-1664.5" fill="#000" font-family="Arial" font-size="10" text-anchor="start">FOREIGN KEY (insight_id) REFERENCES insights(id) ON UPDATE CASCADE ON DELETE CASCADE</text></g><g id="node3" class="node"><title>public.users</title><polygon fill="#efefef" stroke="transparent" points="679 -1302.5 679 -1337.5 1030 -1337.5 1030 -1302.5 679 -1302.5"/><polygon fill="none" stroke="#000" points="679 -1302.5 679 -1337.5 1030 -1337.5 1030 -1302.5 679 -1302.5"/><text x="757.866" y="-1315.3" fill="#000" font-family="Arial Bold" font-size="18" text-anchor="start">public.users</text><text x="857.771" y="-1315.3" fill="#666" font-family="Arial" font-size="14" text-anchor="start">[BASE TABLE]</text><polygon fill="none" stroke="#000" points="679 -1272.5 679 -1302.5 1030 -1302.5 1030 -1272.5 679 -1272.5"/><text x="686" y="-1283.9" fill="#000" font-family="Arial" font-size="14" text-anchor="start">id</text><text x="700.78" y="-1283.9" fill="#666" font-family="Arial" font-size="14" text-anchor="start">[bigint]</text><polygon fill="none" stroke="#000" points="679 -1242.5 679 -1272.5 1030 -1272.5 1030 -1242.5 679 -1242.5"/><text x="686" y="-1253.9" fill="#000" font-family="Arial" font-size="14" text-anchor="start">open_issues</text><text x="768.475" y="-1253.9" fill="#666" font-family="Arial" font-size="14" text-anchor="start">[bigint]</text><polygon fill="none" stroke="#000" points="679 -1212.5 679 -1242.5 1030 -1242.5 1030 -1212.5 679 -1212.5"/><text x="686" y="-1223.9" fill="#000" font-family="Arial" font-size="14" text-anchor="start">public_repos</text><text x="769.243" y="-1223.9" fill="#666" font-family="Arial" font-size="14" text-anchor="start">[bigint]</text><polygon fill="none" stroke="#000" points="679 -1182.5 679 -1212.5 1030 -1212.5 1030 -1182.5 679 -1182.5"/><text x="686" y="-1193.9" fill="#000" font-family="Arial" font-size="14" text-anchor="start">public_gists</text><text x="763.014" y="-1193.9" fill="#666" font-family="Arial" font-size="14" text-anchor="start">[bigint]</text><polygon fill="none" stroke="#000" points="679 -1152.5 679 -1182.5 1030 -1182.5 1030 -1152.5 679 -1152.5"/><text x="686" y="-1163.9" fill="#000" font-family="Arial" font-size="14" text-anchor="start">followers</text><text x="745.109" y="-1163.9" fill="#666" font-family="Arial" font-size="14" text-anchor="start">[bigint]</text><polygon fill="none" stroke="#000" points="679 -1122.5 679 -1152.5 1030 -1152.5 1030 -1122.5 679 -1122.5"/><text x="686" y="-1133.9" fill="#000" font-family="Arial" font-size="14" text-anchor="start">following</text><text x="744.338" y="-1133.9" fill="#666" font-family="Arial" font-size="14" text-anchor="start">[bigint]</text><polygon fill="none" stroke="#000" points="679 -1092.5 679 -1122.5 1030 -1122.5 1030 -1092.5 679 -1092.5"/><text x="686" y="-1103.9" fill="#000" font-family="Arial" font-size="14" text-anchor="start">role</text><text x="713.223" y="-1103.9" fill="#666" font-family="Arial" font-size="14" text-anchor="start">[bigint]</text><polygon fill="none" stroke="#000" points="679 -1062.5 679 -1092.5 1030 -1092.5 1030 -1062.5 679 -1062.5"/><text x="686" y="-1073.9" fill="#000" font-family="Arial" font-size="14" text-anchor="start">display_local_time</text><text x="804.236" y="-1073.9" fill="#666" font-family="Arial" font-size="14" text-anchor="start">[boolean]</text><polygon fill="none" stroke="#000" points="679 -1032.5 679 -1062.5 1030 -1062.5 1030 -1032.5 679 -1032.5"/><text x="686" y="-1043.9" fill="#000" font-family="Arial" font-size="14" text-anchor="start">has_stars_data</text><text x="785.593" y="-1043.9" fill="#666" font-family="Arial" font-size="14" text-anchor="start">[boolean]</text><polygon fill="none" stroke="#000" points="679 -1002.5 679 -1032.5 1030 -1032.5 1030 -1002.5 679 -1002.5"/><text x="686" y="-1013.9" fill="#000" font-family="Arial" font-size="14" text-anchor="start">is_private</text><text x="749.785" y="-1013.9" fill="#666" font-family="Arial" font-size="14" text-anchor="start">[boolean]</text><polygon fill="none" stroke="#000" points="679 -972.5 679 -1002.5 1030 -1002.5 1030 -972.5 679 -972.5"/><text x="686" y="-983.9" fill="#000" font-family="Arial" font-size="14" text-anchor="start">is_open_sauced_member</text><text x="850.935" y="-983.9" fill="#666" font-family="Arial" font-size="14" text-anchor="start">[boolean]</text><polygon fill="none" stroke="#000" points="679 -942.5 679 -972.5 1030 -972.5 1030 -942.5 679 -942.5"/><text x="686" y="-953.9" fill="#000" font-family="Arial" font-size="14" text-anchor="start">is_onboarded</text><text x="774.701" y="-953.9" fill="#666" font-family="Arial" font-size="14" text-anchor="start">[boolean]</text><polygon fill="none" stroke="#000" points="679 -912.5 679 -942.5 1030 -942.5 1030 -912.5 679 -912.5"/><text x="686" y="-923.9" fill="#000" font-family="Arial" font-size="14" text-anchor="start">is_waitlisted</text><text x="765.335" y="-923.9" fill="#666" font-family="Arial" font-size="14" text-anchor="start">[boolean]</text><polygon fill="none" stroke="#000" points="679 -882.5 679 -912.5 1030 -912.5 1030 -882.5 679 -882.5"/><text x="686" y="-893.9" fill="#000" font-family="Arial" font-size="14" text-anchor="start">hireable</text><text x="739.677" y="-893.9" fill="#666" font-family="Arial" font-size="14" text-anchor="start">[boolean]</text><polygon fill="none" stroke="#000" points="679 -852.5 679 -882.5 1030 -882.5 1030 -852.5 679 -852.5"/><text x="686" y="-863.9" fill="#000" font-family="Arial" font-size="14" text-anchor="start">display_email</text><text x="774.673" y="-863.9" fill="#666" font-family="Arial" font-size="14" text-anchor="start">[boolean]</text><polygon fill="none" stroke="#000" points="679 -822.5 679 -852.5 1030 -852.5 1030 -822.5 679 -822.5"/><text x="686" y="-833.9" fill="#000" font-family="Arial" font-size="14" text-anchor="start">receive_collaboration</text><text x="822.137" y="-833.9" fill="#666" font-family="Arial" font-size="14" text-anchor="start">[boolean]</text><polygon fill="none" stroke="#000" points="679 -792.5 679 -822.5 1030 -822.5 1030 -792.5 679 -792.5"/><text x="686" y="-803.9" fill="#000" font-family="Arial" font-size="14" text-anchor="start">created_at</text><text x="756.028" y="-803.9" fill="#666" font-family="Arial" font-size="14" text-anchor="start">[timestamp without time zone]</text><polygon fill="none" stroke="#000" points="679 -762.5 679 -792.5 1030 -792.5 1030 -762.5 679 -762.5"/><text x="686" y="-773.9" fill="#000" font-family="Arial" font-size="14" text-anchor="start">updated_at</text><text x="759.933" y="-773.9" fill="#666" font-family="Arial" font-size="14" text-anchor="start">[timestamp without time zone]</text><polygon fill="none" stroke="#000" points="679 -732.5 679 -762.5 1030 -762.5 1030 -732.5 679 -732.5"/><text x="686" y="-743.9" fill="#000" font-family="Arial" font-size="14" text-anchor="start">deleted_at</text><text x="755.257" y="-743.9" fill="#666" font-family="Arial" font-size="14" text-anchor="start">[timestamp without time zone]</text><polygon fill="none" stroke="#000" points="679 -702.5 679 -732.5 1030 -732.5 1030 -702.5 679 -702.5"/><text x="686" y="-713.9" fill="#000" font-family="Arial" font-size="14" text-anchor="start">type</text><text x="716.346" y="-713.9" fill="#666" font-family="Arial" font-size="14" text-anchor="start">[varchar(20)]</text><polygon fill="none" stroke="#000" points="679 -672.5 679 -702.5 1030 -702.5 1030 -672.5 679 -672.5"/><text x="686" y="-683.9" fill="#000" font-family="Arial" font-size="14" text-anchor="start">timezone</text><text x="746.679" y="-683.9" fill="#666" font-family="Arial" font-size="14" text-anchor="start">[varchar(50)]</text><polygon fill="none" stroke="#000" points="679 -642.5 679 -672.5 1030 -672.5 1030 -642.5 679 -642.5"/><text x="686" y="-653.9" fill="#000" font-family="Arial" font-size="14" text-anchor="start">login</text><text x="719.452" y="-653.9" fill="#666" font-family="Arial" font-size="14" text-anchor="start">[varchar(255)]</text><polygon fill="none" stroke="#000" points="679 -612.5 679 -642.5 1030 -642.5 1030 -612.5 679 -612.5"/><text x="686" y="-623.9" fill="#000" font-family="Arial" font-size="14" text-anchor="start">email</text><text x="723.33" y="-623.9" fill="#666" font-family="Arial" font-size="14" text-anchor="start">[varchar(255)]</text><polygon fill="none" stroke="#000" points="679 -582.5 679 -612.5 1030 -612.5 1030 -582.5 679 -582.5"/><text x="686" y="-593.9" fill="#000" font-family="Arial" font-size="14" text-anchor="start">bio</text><text x="708.562" y="-593.9" fill="#666" font-family="Arial" font-size="14" text-anchor="start">[varchar(255)]</text><polygon fill="none" stroke="#000" points="679 -552.5 679 -582.5 1030 -582.5 1030 -552.5 679 -552.5"/><text x="686" y="-563.9" fill="#000" font-family="Arial" font-size="14" text-anchor="start">name</text><text x="724.899" y="-563.9" fill="#666" font-family="Arial" font-size="14" text-anchor="start">[varchar(255)]</text><polygon fill="none" stroke="#000" points="679 -522.5 679 -552.5 1030 -552.5 1030 -522.5 679 -522.5"/><text x="686" y="-533.9" fill="#000" font-family="Arial" font-size="14" text-anchor="start">twitter_username</text><text x="797.236" y="-533.9" fill="#666" font-family="Arial" font-size="14" text-anchor="start">[varchar(15)]</text><polygon fill="none" stroke="#000" points="679 -492.5 679 -522.5 1030 -522.5 1030 -492.5 679 -492.5"/><text x="686" y="-503.9" fill="#000" font-family="Arial" font-size="14" text-anchor="start">company</text><text x="746.682" y="-503.9" fill="#666" font-family="Arial" font-size="14" text-anchor="start">[varchar(255)]</text><polygon fill="none" stroke="#000" points="679 -462.5 679 -492.5 1030 -492.5 1030 -462.5 679 -462.5"/><text x="686" y="-473.9" fill="#000" font-family="Arial" font-size="14" text-anchor="start">location</text><text x="738.125" y="-473.9" fill="#666" font-family="Arial" font-size="14" text-anchor="start">[varchar(255)]</text><polygon fill="none" stroke="#000" points="679 -432.5 679 -462.5 1030 -462.5 1030 -432.5 679 -432.5"/><text x="686" y="-443.9" fill="#000" font-family="Arial" font-size="14" text-anchor="start">node_id</text><text x="739.693" y="-443.9" fill="#666" font-family="Arial" font-size="14" text-anchor="start">[varchar(50)]</text><polygon fill="none" stroke="#000" points="679 -402.5 679 -432.5 1030 -432.5 1030 -402.5 679 -402.5"/><text x="686" y="-413.9" fill="#000" font-family="Arial" font-size="14" text-anchor="start">avatar_url</text><text x="752.122" y="-413.9" fill="#666" font-family="Arial" font-size="14" text-anchor="start">[varchar(255)]</text><polygon fill="none" stroke="#000" points="679 -372.5 679 -402.5 1030 -402.5 1030 -372.5 679 -372.5"/><text x="686" y="-383.9" fill="#000" font-family="Arial" font-size="14" text-anchor="start">gravatar_id</text><text x="759.905" y="-383.9" fill="#666" font-family="Arial" font-size="14" text-anchor="start">[varchar(255)]</text><polygon fill="none" stroke="#000" points="679 -342.5 679 -372.5 1030 -372.5 1030 -342.5 679 -342.5"/><text x="686" y="-353.9" fill="#000" font-family="Arial" font-size="14" text-anchor="start">url</text><text x="705.44" y="-353.9" fill="#666" font-family="Arial" font-size="14" text-anchor="start">[varchar(255)]</text><polygon fill="none" stroke="#000" points="679 -312.5 679 -342.5 1030 -342.5 1030 -312.5 679 -312.5"/><text x="686" y="-323.9" fill="#000" font-family="Arial" font-size="14" text-anchor="start">blog</text><text x="716.345" y="-323.9" fill="#666" font-family="Arial" font-size="14" text-anchor="start">[varchar(255)]</text><polygon fill="none" stroke="#000" points="679 -282.5 679 -312.5 1030 -312.5 1030 -282.5 679 -282.5"/><text x="686" y="-293.9" fill="#000" font-family="Arial" font-size="14" text-anchor="start">interests</text><text x="742.787" y="-293.9" fill="#666" font-family="Arial" font-size="14" text-anchor="start">[varchar(200)]</text><polygon fill="none" stroke="#000" points="679 -252.5 679 -282.5 1030 -282.5 1030 -252.5 679 -252.5"/><text x="686" y="-263.9" fill="#000" font-family="Arial" font-size="14" text-anchor="start">linkedin_url</text><text x="760.673" y="-263.9" fill="#666" font-family="Arial" font-size="14" text-anchor="start">[varchar(255)]</text><polygon fill="none" stroke="#000" points="679 -222.5 679 -252.5 1030 -252.5 1030 -222.5 679 -222.5"/><text x="686" y="-233.9" fill="#000" font-family="Arial" font-size="14" text-anchor="start">github_sponsors_url</text><text x="815.924" y="-233.9" fill="#666" font-family="Arial" font-size="14" text-anchor="start">[varchar(255)]</text><polygon fill="none" stroke="#000" points="679 -192.5 679 -222.5 1030 -222.5 1030 -192.5 679 -192.5"/><text x="686" y="-203.9" fill="#000" font-family="Arial" font-size="14" text-anchor="start">last_fetched_users_at</text><text x="826.829" y="-203.9" fill="#666" font-family="Arial" font-size="14" text-anchor="start">[timestamp without time zone]</text><polygon fill="none" stroke="#000" points="679 -162.5 679 -192.5 1030 -192.5 1030 -162.5 679 -162.5"/><text x="686" y="-173.9" fill="#000" font-family="Arial" font-size="14" text-anchor="start">languages</text><text x="754.475" y="-173.9" fill="#666" font-family="Arial" font-size="14" text-anchor="start">[jsonb]</text><polygon fill="none" stroke="#000" points="679 -132.5 679 -162.5 1030 -162.5 1030 -132.5 679 -132.5"/><text x="686" y="-143.9" fill="#000" font-family="Arial" font-size="14" text-anchor="start">first_opened_pr_at</text><text x="806.599" y="-143.9" fill="#666" font-family="Arial" font-size="14" text-anchor="start">[timestamp without time zone]</text><polygon fill="none" stroke="#000" points="679 -102.5 679 -132.5 1030 -132.5 1030 -102.5 679 -102.5"/><text x="685.693" y="-113.9" fill="#000" font-family="Arial" font-size="14" text-anchor="start">first_pushed_commit_at</text><text x="838.167" y="-113.9" fill="#666" font-family="Arial" font-size="14" text-anchor="start">[timestamp without time zone]</text><polygon fill="none" stroke="#000" points="679 -72.5 679 -102.5 1030 -102.5 1030 -72.5 679 -72.5"/><text x="686" y="-83.9" fill="#000" font-family="Arial" font-size="14" text-anchor="start">connected_at</text><text x="773.933" y="-83.9" fill="#666" font-family="Arial" font-size="14" text-anchor="start">[timestamp without time zone]</text><polygon fill="none" stroke="#000" points="679 -42.5 679 -72.5 1030 -72.5 1030 -42.5 679 -42.5"/><text x="686" y="-53.9" fill="#000" font-family="Arial" font-size="14" text-anchor="start">discord_url</text><text x="758.338" y="-53.9" fill="#666" font-family="Arial" font-size="14" text-anchor="start">[varchar(255)]</text></g><g id="edge2" class="edge"><title>public.insight_members:user_id-&gt;public.users:id</title><path fill="none" stroke="#000" d="M823.0268,-1684.0605C929.1395,-1674.4218 883.2244,-1508.5808 813,-1417 775.4754,-1368.0636 716.5246,-1429.9364 679,-1381 653.7135,-1348.0234 637.4444,-1287.5 679,-1287.5"/><polygon fill="#000" stroke="#000" points="822.99 -1684.062 812.803 -1680.004 817.995 -1684.281 813 -1684.5 813 -1684.5 813 -1684.5 817.995 -1684.281 813.197 -1688.996 822.99 -1684.062 822.99 -1684.062"/><text x="819.942" y="-1694.5" fill="#000" font-family="Arial" font-size="10" text-anchor="start">FOREIGN KEY (user_id) REFERENCES users(id) ON UPDATE CASCADE ON DELETE CASCADE</text></g></g></svg>